<svg id="Layer_1" data-name="Layer 1" xmlns="http://www.w3.org/2000/svg" viewBox="0 0 7.5 6"><defs><style>.cls-1{fill:#2e0659;}</style></defs><title>i-bike</title><path class="cls-1" d="M4.68,1.13A.58.58,0,0,0,5.25.56.57.57,0,0,0,4.68,0a.56.56,0,0,0-.56.56.57.57,0,0,0,.56.57Zm0,1.42a.41.41,0,0,0,.24.08h.75A.37.37,0,0,0,6,2.25a.36.36,0,0,0-.37-.37H5L4.17,1.2a.39.39,0,0,0-.48,0L2.38,2.34a.38.38,0,0,0,0,.53h0l.08.07,1,.64v1.3a.38.38,0,0,0,.75,0V3.38A.37.37,0,0,0,4,3.08l-.48-.34.68-.6ZM6,3a1.5,1.5,0,1,0,1.5,1.5A1.5,1.5,0,0,0,6,3ZM6,5.25a.75.75,0,1,1,.75-.75A.75.75,0,0,1,6,5.25ZM1.49,3A1.5,1.5,0,1,0,3,4.5,1.5,1.5,0,0,0,1.49,3Zm0,2.25a.75.75,0,1,1,.75-.75A.75.75,0,0,1,1.49,5.25Z"/></svg>