<svg id="Layer_1" data-name="Layer 1" xmlns="http://www.w3.org/2000/svg" viewBox="0 0 7.5 6"><defs><style>.cls-1{fill:#2e0659;}</style></defs><title>i-bike</title><path class="cls-1" d="M7.28,1.91H6.4l-.25-.59a1.58,1.58,0,0,0-1.47-1H2.81a1.53,1.53,0,0,0-1.47,1l-.25.59H.21c-.1,0-.15.05-.15.15v0l.1.34A.15.15,0,0,0,.3,2.6H.6a.82.82,0,0,0-.3.69V4a.82.82,0,0,0,.25.59v.78A.45.45,0,0,0,1,5.8h.44a.45.45,0,0,0,.45-.45V4.91H5.56v.44A.45.45,0,0,0,6,5.8h.45a.45.45,0,0,0,.44-.45V4.57A.91.91,0,0,0,7.13,4V3.29a.88.88,0,0,0-.29-.69h.29a.13.13,0,0,0,.15-.15l.15-.34c.05-.1,0-.2-.15-.2ZM2.17,1.62a.69.69,0,0,1,.64-.44H4.63a.63.63,0,0,1,.64.44l.29.74H1.88ZM1.43,4A.41.41,0,0,1,1,3.58v0a.41.41,0,0,1,.39-.45h.05a.84.84,0,0,1,.69.64c0,.3-.44.25-.69.25ZM6.05,4c-.29,0-.68.05-.68-.25A.83.83,0,0,1,6.05,3a.41.41,0,0,1,.45.4v.05a.41.41,0,0,1-.4.44A0,0,0,0,1,6.05,4Z"/></svg>