<?xml version="1.0" encoding="utf-8"?>
<!-- Generator: Adobe Illustrator 23.0.0, SVG Export Plug-In . SVG Version: 6.00 Build 0)  -->
<svg version="1.1" id="Layer_1" xmlns="http://www.w3.org/2000/svg" xmlns:xlink="http://www.w3.org/1999/xlink" x="0px" y="0px"
	 viewBox="0 0 24.9 37.7" style="enable-background:new 0 0 24.9 37.7;" xml:space="preserve">
<style type="text/css">
	.st0{opacity:0.56;fill:#A3A3A3;}
	.st1{fill:#B565F2;}
</style>
<title>i-location</title>
<ellipse class="st0" cx="12.4" cy="33.2" rx="12.1" ry="3.7"/>
<path class="st1" d="M11.2,32.5C1.8,18.8,0,17.5,0,12.4C0,5.6,5.6,0,12.5,0c6.9,0,12.4,5.6,12.4,12.4c0,5-1.8,6.4-11.2,20.1
	c-0.5,0.7-1.4,0.9-2.2,0.4C11.4,32.8,11.3,32.7,11.2,32.5z M12.4,17.6c2.9,0,5.2-2.3,5.2-5.2s-2.3-5.2-5.2-5.2s-5.2,2.3-5.2,5.2
	c0,0,0,0,0,0C7.3,15.3,9.6,17.6,12.4,17.6C12.4,17.6,12.4,17.6,12.4,17.6z"/>
</svg>
