<svg xmlns="http://www.w3.org/2000/svg" viewBox="0 0 2509.9 1158.38"><defs><style>.cls-1{fill:#edf4ff;}.cls-2{fill:#82b378;}.cls-3{fill:#2e3552;}.cls-4{fill:#db6161;}.cls-5{fill:#233862;}.cls-6{fill:#e69d43;}.cls-7{fill:#d57912;}.cls-8{fill:#b65615;}.cls-9{fill:#d36e2a;}.cls-10{fill:#f59040;}.cls-11{fill:#dce7f9;}.cls-12{fill:#d15050;}.cls-13{fill:#b64c41;}.cls-14{fill:#a03c37;}.cls-15{fill:#c44943;}.cls-16{fill:#ffb27d;}.cls-17{fill:#2b478b;}.cls-18{fill:#ffb07b;}.cls-19{fill:#ea8e50;}.cls-20{fill:#2c3a64;}.cls-21{fill:#ed975d;}</style></defs><title>Asset 1</title><g id="Layer_2" data-name="Layer 2"><g id="Layer_1-2" data-name="Layer 1"><path class="cls-1" d="M1672.61,377c-106.92,45.62-209.28-13.56-330-100.32a397.94,397.94,0,0,1-37.27-27.13c-25.87-19-52.62-38.82-80.46-58.82C918.16-12.19,399.79-139.21,136,266.67c-247.15,380.26-91.64,760.67-41.9,862.06,8.54,16.88,13.7,26.15,13.7,26.15l2286.56.69C2508.29,213.56,1968.13,250.86,1672.61,377Z"/><path class="cls-2" d="M2139,1150.86c-4.38-6.88-17.57-24.75-35.13-22.38-19.14,2.57,21.13,15.19,33.46,22.43a20.59,20.59,0,0,1-6.82-.79c-8.24-2.94-22.36,2.69-26.87,4.67h78.47a12.41,12.41,0,0,0-5.61-7.18c-1.29-.78-3.88-.89-7.22-.64,4.67-5.5,7.91-23.07-5.08-18.55-9.49,3.3-9.47,14-8.54,20.39-2,.32-4.06.64-6.08.93-3.91-19.91-17.73-78.27-45.74-79.83-28.39-1.57,24.08,60.53,41.55,80.39C2143.19,1150.57,2141,1150.77,2139,1150.86Z"/><path class="cls-3" d="M2506.32,1158.38H8.25a3.61,3.61,0,0,1-3.58-3.62h0a3.6,3.6,0,0,1,3.58-3.61H2506.32a3.6,3.6,0,0,1,3.58,3.61h0A3.61,3.61,0,0,1,2506.32,1158.38Z"/><polygon class="cls-4" points="1474.47 393.89 784.52 393.89 784.52 978.1 1557.56 978.1 1474.47 393.89"/><polygon class="cls-5" points="1444.26 413.89 662.32 413.89 662.32 978.1 1525.36 978.1 1444.26 413.89"/><rect class="cls-6" x="1107.01" y="870.29" width="106.34" height="107.81" transform="translate(2320.35 1848.39) rotate(180)"/><rect class="cls-7" x="1208.92" y="870.29" width="48.68" height="107.81" transform="translate(2466.51 1848.39) rotate(180)"/><rect class="cls-6" x="1101.36" y="765.43" width="176.34" height="106.33" transform="translate(2379.06 1637.2) rotate(180)"/><rect class="cls-7" x="1273.27" y="765.43" width="48.68" height="106.33" transform="translate(2595.22 1637.2) rotate(180)"/><rect class="cls-8" x="122.18" y="909.27" width="247.13" height="109.62" rx="10.03"/><circle class="cls-5" cx="1048.84" cy="1055.09" r="99.07" transform="translate(-42.94 44.5) rotate(-2.38)"/><circle class="cls-5" cx="1427.9" cy="1055.09" r="99.07" transform="translate(-97.02 145.84) rotate(-5.65)"/><circle class="cls-5" cx="254.99" cy="1055.09" r="99.07" transform="translate(-671.37 489.33) rotate(-45)"/><circle class="cls-9" cx="254.99" cy="1055.09" r="50"/><circle class="cls-10" cx="254.99" cy="1055.09" r="50"/><path class="cls-9" d="M288.27,1017.78a50,50,0,0,1-78.89,57.77,50,50,0,1,0,78.89-57.77Z"/><circle class="cls-8" cx="254.99" cy="1055.09" r="15.5"/><circle class="cls-8" cx="228.62" cy="1081.65" r="6"/><circle class="cls-8" cx="221.62" cy="1037.09" r="6"/><circle class="cls-8" cx="287.62" cy="1037.09" r="6"/><circle class="cls-8" cx="282.62" cy="1081.65" r="6"/><circle class="cls-8" cx="254.99" cy="1016.88" r="6"/><circle class="cls-9" cx="1046.99" cy="1055.09" r="50"/><circle class="cls-9" cx="1046.99" cy="1055.09" r="50"/><circle class="cls-8" cx="1046.99" cy="1055.09" r="15.5"/><circle class="cls-8" cx="1020.62" cy="1081.65" r="6"/><circle class="cls-8" cx="1013.62" cy="1037.09" r="6"/><circle class="cls-8" cx="1079.62" cy="1037.09" r="6"/><circle class="cls-8" cx="1074.62" cy="1081.65" r="6"/><circle class="cls-8" cx="1046.99" cy="1016.88" r="6"/><circle class="cls-5" cx="536.46" cy="1055.09" r="99.07" transform="translate(-44.97 24.1) rotate(-2.47)"/><path class="cls-7" d="M253.89,520.17s53.76-81.08,115.9-81.75l-5.54,87.73Z"/><path class="cls-6" d="M570.56,890.6H140.33L176.14,600a94.24,94.24,0,0,1,93.54-82.72H570.56Z"/><path class="cls-7" d="M320.47,713H199.82l16-114.75A47.81,47.81,0,0,1,263.16,557h61Z"/><path class="cls-11" d="M311.55,704.32H232.11a19.83,19.83,0,0,1-19.65-22.44L223,602.49c2.78-21,19.88-36.58,40.06-36.58h51.65Z"/><polygon class="cls-12" points="1155.73 978.1 328.22 978.1 365.13 393.89 1106.83 393.89 1155.73 978.1"/><polygon class="cls-13" points="1123.35 955.95 358.61 955.95 392.72 416.05 1078.15 416.05 1114.78 853.67 1123.35 955.95"/><path class="cls-7" d="M402.84,890.6H140.33c-23.12,1.54-25.36,13-25.36,13L92.53,1012.14c0,3.71,3.41,6.74,7.58,6.74h66c4.17,0,7.18-3,9-6.92,0,0,10.15-12.54,17-17,17.07-11.25,35.59-18.62,63-18.62,33.65,0,63.38,10.7,81.28,27.06h66.57c8,0,14.61-4.19,14.61-9.32V899.92C417.45,894.79,410.88,890.6,402.84,890.6Z"/><path class="cls-12" d="M1182.3,1103.73h-83.19a77.29,77.29,0,0,0-10.43-26.79c-25.15-40.31-84-52.63-117.47-56.4a245.41,245.41,0,0,0-24.51-1.66h143c37.41,5.07,60.38,25.47,74.07,45A122,122,0,0,1,1182.3,1103.73Z"/><path class="cls-12" d="M1557.56,1103.73h-83.2a77.14,77.14,0,0,0-12.51-30c-38-54.8-139.9-54.88-139.9-54.88h143c31.28,4.24,52.45,19.21,66.57,35.41A123.62,123.62,0,0,1,1557.56,1103.73Z"/><path class="cls-14" d="M1163.78,1063.89s-54.75-11.56-75.1,13c-25.15-40.31-84-52.63-117.47-56.4l-2-1.66h120.52C1127.12,1024,1150.09,1044.35,1163.78,1063.89Z"/><path class="cls-14" d="M1531.55,1054.29h0s-45.8-1-69.7,19.46c-38-54.8-139.9-54.88-139.9-54.88h143C1496.26,1023.12,1517.43,1038.09,1531.55,1054.29Z"/><rect class="cls-14" x="335.83" y="978.1" width="1242.28" height="56.66" rx="11.14"/><rect class="cls-14" x="388.4" y="992.34" width="247.13" height="125.5" rx="10.74"/><path class="cls-15" d="M1124.34,956H359.6l34.12-539.9H527.29c41.81,123.33,183.26,415.72,588.49,437.63Z"/><path class="cls-13" d="M148.15,656.71s-10.75,57.8-10.22,67.22,9.43,14,16.2,14Z"/><rect class="cls-7" x="147.72" y="651.89" width="40.04" height="86.06" rx="6.95"/><rect class="cls-11" x="152.17" y="656.71" width="32.56" height="77.06" rx="5.93"/><path class="cls-13" d="M167.74,653.46a1.47,1.47,0,0,1-1.34-1.57V627.6c0-.07,0-.13,0-.2s1.67-14,16.22-13.52c13.31.41,19.05,0,19.1,0a1.44,1.44,0,0,1,1.42,1.47A1.52,1.52,0,0,1,201.9,617c-.24,0-5.91.42-19.34,0-11.72-.36-13.34,9.57-13.49,10.68v24.19A1.46,1.46,0,0,1,167.74,653.46Z"/><path class="cls-7" d="M309.29,750.35H284.94a6.22,6.22,0,0,1-6.19-6.2h0a6.22,6.22,0,0,1,6.19-6.2h24.35a6.22,6.22,0,0,1,6.2,6.2h0A6.22,6.22,0,0,1,309.29,750.35Z"/><rect class="cls-6" x="1283.51" y="871.77" width="106.34" height="106.33" transform="translate(2673.35 1849.87) rotate(180)"/><rect class="cls-7" x="1385.42" y="871.77" width="48.68" height="106.33" transform="translate(2819.51 1849.87) rotate(180)"/><path class="cls-14" d="M1777,792c2.9-6.27,1.33-9.63,1.33-9.63s-67.07-24.88-73.58-26.55c-4.43-1.13-54.73-22.07-79.9-36.71-12.5-7.27-22.19.55-33.61,8.54l-9.4,6.57c-11.36,7.94-8.58,26.69,4.69,31.7,37.4,14.11,95.14,24.59,106.16,27.18,27.35,6.42,77.16,8.11,77.16,8.11A29.5,29.5,0,0,0,1777,792Z"/><path class="cls-16" d="M2095.77,791.14l-9,.51s-15.92-6.07-24.26,10.47c0,0-2.94,7.09,2.6,7.43s3.46-.59,11.25.05,15.19-2.35,17.72-7.48l4.92-4.19Z"/><path class="cls-5" d="M2089.17,797.57c-1.93-6.19-1.47-7.17-1.47-7.17s55-29.56,60-32.56,61.93-63.25,61.93-63.25l58.09,16.13s-90.11,68.31-103,75.65C2143.38,798.52,2094,805.3,2094,805.3A18,18,0,0,1,2089.17,797.57Z"/><path class="cls-7" d="M2168.58,831.88l-439.31,93.51-58.14-273.13,439.31-93.51Z"/><path class="cls-6" d="M2061.71,854.62l-332.44,70.77-58.14-273.13,332.44-70.76Z"/><path class="cls-5" d="M1825.09,1118s8.87,9.78,29.45,4.46c0,0,16.6-3.78,20.23,4.5,0,0-20.88,13.21-27.32,16.75a76.7,76.7,0,0,0-13.5,10.12,6.68,6.68,0,0,1-9.67-.74c-1.12-1.38-2.4-3-3.8-4.92-3.93-5.32-13.07-22.5-13.07-22.5Z"/><path class="cls-17" d="M1833,1112.88s-8.18,18.86-27.06,15.39c0,0-38.52-31.82-65-64.87-8.59-10.73-15.89-21.6-20.19-31.54-17.52-40.58-64.82-101.1-94.9-131.77l75.24-27.22s24.11,48.48,56.17,108C1780.39,1023.81,1807.63,1072.47,1833,1112.88Z"/><path class="cls-5" d="M1757.28,980.9,1741,1063.4c-8.59-10.73-15.89-21.6-20.19-31.54-17.52-40.58-64.82-101.1-94.9-131.77l75.24-27.22S1725.22,921.35,1757.28,980.9Z"/><path class="cls-5" d="M1695.78,1128.94s-.82,15,17.42,17c0,0,11,.23,11,9.81h-53.61s-1.54-3.87-1.91-12.14c-.29-6.36,6.16-23,6.16-23Z"/><path class="cls-17" d="M1676.44,872.87s33.52,36.83,54.79,103.19c11.58,36.11-21.22,126.88-27.61,158.42,0,0-22,1.86-37-4,0,0-1.15-65.14,7.65-115.35,4.93-28.1-44.13-60.09-65.57-110.86-14.58-34.54,3.16-34,25-34.79Z"/><path class="cls-18" d="M1637.74,708.55c-18.65,10.53-56.83.82-56.83.82s15.51-17.73,8.46-46.28l14.64,7.44,15.73,8a130.09,130.09,0,0,1,1.73,14.09c.18,2.34.34,4.94.45,7.79A48.92,48.92,0,0,1,1637.74,708.55Z"/><path class="cls-13" d="M1706.13,871c0,3.28-3.78,4.85-4.58,5-7.52,1.37-28.53,9.54-47.45,11.41-15.93,1.67-30.72.09-47-3.17-2.15-.44-7.2-1.8-7.56-3.86-.45-2.25-62.68-126.86-14.3-180.39,1.13-1.25,10.68,1,19.42,3.08a35.84,35.84,0,0,0,22.06-1.8l8.19,4.31c10.06,5.6,29.09,25.51,31.32,41.13,1.13,7.95,5.67,13.83,7,20.82q.72,3.88,1.49,7.57,1.48,7.24,3.07,13.79c2.84,11.82,5.84,22,8.79,30.78,3.14,9.33,6.22,17.09,9,23.58,3.57,8.42,6.58,14.71,8.46,19.53C1705.36,866.15,1706.13,868.81,1706.13,871Z"/><path class="cls-14" d="M1704,862.76c-87.84-41.39-118.27-120.86-118.27-120.86s70.75,23.25,88.36,30.11c1,4.83,2.63,12.49,3.69,16.86,2.84,11.82,5.84,22,8.79,30.78,3.14,9.33,6.22,17.09,9,23.58C1699.14,851.65,1702.15,857.94,1704,862.76Z"/><path class="cls-18" d="M1735.47,661l1.68-7.91s-12.8-13.52,3.16-25.37c0,0,7.07-4.48,9.48.65s.59,3.4,4.18,10.58,2.85,14.87-2.13,18.49l-3,5.64Z"/><path class="cls-19" d="M1621.47,692.61c-18.34,1-30.27-14.11-30.27-14.11a145.19,145.19,0,0,0,12.81-8l15.73,8A130.09,130.09,0,0,1,1621.47,692.61Z"/><path class="cls-18" d="M1629.28,673.79s-27.79,19.94-39.94,2.44-23.92-26.7-6.69-40.18,25.34-9.21,30.82-4.36S1636.19,668.15,1629.28,673.79Z"/><path class="cls-5" d="M1616.41,615.89a44.83,44.83,0,0,0-3.24-11.46s-1.74,7.23-15,6.23S1564.1,612,1557.13,627a30.29,30.29,0,0,0-1.19,3,34.43,34.43,0,0,1-1.57-8.33c-2.51,6.48,0,14.58,0,14.58h0c0,.23-.07.47-.1.71-2.92,2.46-5.36,10.12-5.36,10.12.88-2.14,3-3.53,4.93-4.39-.06,11.7,4.69,23.15,13,26.55,12.19,5,12.09,1.19,24.34,9.31,0,0,3.29-4.08,1-6.81s-10.71-6.73-6-10.72,6.47.5,8.22-2.24-7-10.71,4.23-18.18S1617.4,622.62,1616.41,615.89Z"/><path class="cls-20" d="M2381.26,1111.82s9.35,8.66,7.52,14.82-10.26,10.26-11.4,17.79-5.7,11.63-9.81,11.63H2348s-3-5.3,4.27-6.89,10-10.44,9.59-18.65a147.73,147.73,0,0,1,.69-19.16l15.5-3.65Z"/><path class="cls-20" d="M2264.73,1155.74a4.62,4.62,0,0,1-1.11.32h-51.88c.42-1.82,2-5.46,8.29-6.48,8.17-1.32,22.34-6.07,25.5-16.53.1-.33.19-.68.27-1,2.51-11.17,20.75,3.43,20.75,3.43s0,.44.13,1.2C2267.11,1140.74,2268.19,1154,2264.73,1155.74Z"/><path class="cls-13" d="M2222.2,856.86s2.77,34.57,6,76.13c4.42,56.45,9.75,125.78,10.27,138.92.91,22.81,4.57,59.29,4.57,59.29s8.66,8.67,26,5c0,0,15.45-52.09,19.86-107.19l.21-2.73c4.1-56.1,10.49-174.22,10.49-174.22Z"/><path class="cls-14" d="M2222.2,856.86s2.77,34.57,6,76.13l60.69,96,.21-2.73c4.1-56.1,10.49-174.22,10.49-174.22Z"/><path class="cls-13" d="M2234.85,861s50,125.2,82.78,184,43.1,75.26,43.1,75.26,18.82-7.53,20.53-12.66c0,0-12.56-113.59-34.55-141.27-12.43-15.65-27-62.6-27.71-79s-4.44-48.92-4.44-48.92Z"/><path class="cls-16" d="M2240,659.07s-24.92,32.86-45.28,34.88c0,0,2.41-11.83,8.3-19.36-1.66-2.58-3.11-4.94-4.35-7.05a118.89,118.89,0,0,1-6-11.24l9.09-17.13,6.17-11.62a58.43,58.43,0,0,0,5.74,11.18C2224.68,655.33,2240,659.07,2240,659.07Z"/><path class="cls-21" d="M2213.71,638.73s.05,18.13-15,28.81a118.89,118.89,0,0,1-6-11.24l9.09-17.13C2209.27,637.94,2213.71,638.73,2213.71,638.73Z"/><path class="cls-16" d="M2187,658.22s31.74-7.76,26.6-27.46-4.51-34-25-29.83-22.44,12.66-22.33,19.65S2178.65,659.73,2187,658.22Z"/><path class="cls-17" d="M2319.57,855.21c-14.5,15.89-108.63,27.21-105.94,15.23a132.45,132.45,0,0,0,3.16-23.9c.11-2.62.16-5.42.12-8.38-.2-16.23-3-37.43-12.09-62.75-.68-1.9-1.4-3.81-2.15-5.76a186.11,186.11,0,0,1-8.86-30c-3.9-19.06-4.12-36.83.57-47.81l6.16-17.65c20.2-6.28,26-21.93,26-21.93s63.38,20.27,88.27,111.62C2314.81,763.85,2332.18,841.38,2319.57,855.21Z"/><path class="cls-5" d="M2216.79,846.54c.11-2.62.16-5.42.12-8.38-.2-16.23-3-37.43-12.09-62.75,3.79-12.47,8.11-22.69,11.93-27,15.52-17.69,23.46-19.72,23.46-19.72S2248.77,813.11,2216.79,846.54Z"/><path class="cls-5" d="M2222.57,596.63c.27-.39.94-.75,2.5-1a6.33,6.33,0,0,0-3-.52c-.57-2.18-2.17-6-6-6.51a4.79,4.79,0,0,1,2.66,3.2c-4.84-4.06-14.53-6.34-40.11-1.43-33.71,6.48-20.06,27.36-15.37,29.51s15-6.3,23.26-6.54,11.16,11.63,14.13,13,1.55-1.45,5.12-3.6,4.63,4.16,4,8.4,5.14,9.1,5.14,9.1l4.59-6.29c4.6-6.3,6.86-31.06,3.92-36C2223.1,597.51,2222.84,597.07,2222.57,596.63Z"/><path class="cls-16" d="M2129.57,827.55s-11.43.62-13.88,1.48-10.17,6.92-10.09,7.66.65,1.2,2.19.89,6.32-2.32,6.18-1.63-13.68,7.44-13,10.36,9.95,6.12,16.67,4.65,20.35-11.81,21.24-12.57S2129.57,827.55,2129.57,827.55Z"/><path class="cls-17" d="M2130.29,833.38c-4.23-5.44-1.91-8.38-1.91-8.38s51-49.52,54.86-54.39,16.59-77.12,16.59-77.12,7.26-17.38,23.21-22.25c13.86-4.24,21.05-10,28.33-2.49a30.37,30.37,0,0,1,5.68,33.72c-11.65,25.46-35.22,76-42.72,85.07-14.48,17.4-60.73,45.33-72.74,52.43a4.69,4.69,0,0,1-5.51-.55A48.94,48.94,0,0,1,2130.29,833.38Z"/><path class="cls-13" d="M1753.74,658.58a14.11,14.11,0,0,0-8.53-5.3l-11.11-2.54s-38.14,63.42-41.29,69.77q-1,2.1-3.63,6.72a5.93,5.93,0,0,1-6.69,2.82c-14.75-4-31-9-43-14.59a40.43,40.43,0,0,0-41.38,4.47l-9.81,7.42a17.9,17.9,0,0,0,6.06,31.55c34.62,9.5,85.13,15,106.25,17.48,9.57,1.11,21.2-22.63,27-36h0C1739.82,712.54,1753.74,658.58,1753.74,658.58Z"/></g></g></svg>