<svg xmlns="http://www.w3.org/2000/svg" xmlns:xlink="http://www.w3.org/1999/xlink" viewBox="0 0 637.03 576.51"><defs><style>.cls-1{isolation:isolate;}.cls-2,.cls-30{opacity:0.2;}.cls-3{opacity:0;}.cls-4{opacity:0.09;}.cls-5{opacity:0.18;}.cls-6{opacity:0.27;}.cls-7{opacity:0.36;}.cls-8{opacity:0.45;}.cls-9{opacity:0.55;}.cls-10{opacity:0.64;}.cls-11{opacity:0.73;}.cls-12{opacity:0.82;}.cls-13{opacity:0.91;}.cls-14{fill:url(#linear-gradient);}.cls-111,.cls-115,.cls-15,.cls-23,.cls-33,.cls-35,.cls-40,.cls-54,.cls-63,.cls-64,.cls-67,.cls-81,.cls-85,.cls-90{mix-blend-mode:color-dodge;}.cls-15{fill:url(#radial-gradient);}.cls-16{opacity:0.6;fill:url(#radial-gradient-2);}.cls-16,.cls-44,.cls-49,.cls-80,.cls-82{mix-blend-mode:screen;}.cls-17{fill:url(#linear-gradient-2);}.cls-18{fill:url(#linear-gradient-3);}.cls-19{fill:url(#linear-gradient-4);}.cls-20{fill:url(#linear-gradient-5);}.cls-21{fill:url(#linear-gradient-6);}.cls-22{fill:url(#linear-gradient-7);}.cls-23{fill:url(#radial-gradient-3);}.cls-24{fill:#bcbec0;}.cls-113,.cls-24,.cls-29,.cls-45,.cls-50,.cls-53,.cls-60,.cls-62,.cls-65,.cls-68,.cls-69,.cls-84,.cls-86,.cls-88{mix-blend-mode:multiply;}.cls-25{opacity:0.8;}.cls-26{fill:url(#linear-gradient-8);}.cls-27{fill:#6b24d6;}.cls-28{fill:#f49587;}.cls-29{fill:url(#Linear_Gradient_1);}.cls-31{fill:url(#New_Gradient_Swatch_copy_13);}.cls-32{fill:#bb8cff;}.cls-33{fill:url(#Radial_Gradient_1);}.cls-34{fill:url(#New_Gradient_Swatch_copy_13-2);}.cls-36{fill:url(#Radial_Gradient_1-2);}.cls-37{fill:url(#Radial_Gradient_1-3);}.cls-38{fill:url(#Radial_Gradient_1-4);}.cls-39{fill:url(#New_Gradient_Swatch_copy_22);}.cls-40{fill:url(#Radial_Gradient_1-5);}.cls-41{fill:#58595b;}.cls-42{fill:url(#linear-gradient-9);}.cls-43{fill:url(#linear-gradient-10);}.cls-44{fill:url(#Radial_Gradient_1-6);}.cls-45{fill:url(#linear-gradient-11);}.cls-46{fill:url(#New_Gradient_Swatch_copy_10);}.cls-47{fill:url(#linear-gradient-12);}.cls-48{fill:url(#linear-gradient-13);}.cls-49{fill:url(#Radial_Gradient_1-7);}.cls-50{fill:url(#linear-gradient-14);}.cls-51{fill:url(#New_Gradient_Swatch_copy_10-2);}.cls-52{fill:url(#New_Gradient_Swatch_copy_22-2);}.cls-53{fill:#e6e7e8;}.cls-54{fill:url(#Radial_Gradient_1-8);}.cls-55{fill:#10054d;}.cls-56{fill:url(#linear-gradient-15);}.cls-57{fill:url(#linear-gradient-16);}.cls-58{fill:url(#linear-gradient-17);}.cls-59{fill:url(#linear-gradient-18);}.cls-60{fill:url(#linear-gradient-19);}.cls-61{fill:url(#linear-gradient-20);}.cls-62{fill:url(#linear-gradient-21);}.cls-63{fill:url(#linear-gradient-22);}.cls-64{opacity:0.7;fill:url(#linear-gradient-23);}.cls-65{fill:url(#linear-gradient-24);}.cls-66{fill:url(#New_Gradient_Swatch_copy_22-3);}.cls-67{fill:url(#Radial_Gradient_1-9);}.cls-68{fill:url(#linear-gradient-25);}.cls-69{fill:url(#linear-gradient-26);}.cls-70{fill:url(#linear-gradient-27);}.cls-71{fill:url(#linear-gradient-28);}.cls-72{fill:url(#linear-gradient-29);}.cls-73{fill:url(#linear-gradient-30);}.cls-74{fill:url(#linear-gradient-31);}.cls-75{fill:url(#linear-gradient-32);}.cls-76{fill:url(#linear-gradient-33);}.cls-77{fill:url(#linear-gradient-34);}.cls-78{fill:url(#linear-gradient-35);}.cls-79{fill:url(#New_Gradient_Swatch_copy_20);}.cls-80{fill:url(#Radial_Gradient_1-10);}.cls-81{fill:url(#linear-gradient-36);}.cls-82{fill:url(#linear-gradient-37);}.cls-83{fill:url(#New_Gradient_Swatch_copy_13-3);}.cls-84{fill:#d1d3d4;}.cls-85{fill:url(#Radial_Gradient_1-11);}.cls-86{fill:url(#linear-gradient-38);}.cls-87{fill:url(#New_Gradient_Swatch_copy_22-4);}.cls-88{fill:url(#linear-gradient-39);}.cls-89{fill:url(#New_Gradient_Swatch_copy_22-5);}.cls-90{fill:url(#White_Black_Radial);}.cls-91{fill:url(#New_Gradient_Swatch_copy_25);}.cls-92{fill:url(#New_Gradient_Swatch_copy_25-2);}.cls-93{fill:url(#New_Gradient_Swatch_copy_25-3);}.cls-94{fill:url(#New_Gradient_Swatch_copy_25-4);}.cls-95{fill:url(#New_Gradient_Swatch_copy_25-5);}.cls-96{fill:url(#New_Gradient_Swatch_copy_25-6);}.cls-97{fill:url(#New_Gradient_Swatch_copy_25-7);}.cls-98{fill:url(#New_Gradient_Swatch_copy_25-8);}.cls-99{fill:url(#New_Gradient_Swatch_copy_25-9);}.cls-100{fill:url(#New_Gradient_Swatch_copy_25-10);}.cls-101{fill:url(#New_Gradient_Swatch_copy_25-11);}.cls-102{fill:url(#New_Gradient_Swatch_copy_25-12);}.cls-103{fill:url(#New_Gradient_Swatch_copy_25-13);}.cls-104{fill:url(#New_Gradient_Swatch_copy_25-14);}.cls-105{fill:url(#New_Gradient_Swatch_copy_25-15);}.cls-106{fill:url(#New_Gradient_Swatch_copy_25-16);}.cls-107{fill:url(#New_Gradient_Swatch_copy_25-17);}.cls-108{fill:url(#New_Gradient_Swatch_copy_25-18);}.cls-109{fill:url(#New_Gradient_Swatch_copy_18);}.cls-110{fill:url(#New_Gradient_Swatch_copy_9);}.cls-111{fill:url(#Radial_Gradient_1-12);}.cls-112{fill:url(#New_Gradient_Swatch_copy_10-3);}.cls-114{fill:url(#Linear_Gradient_1-2);}.cls-115{fill:url(#radial-gradient-4);}.cls-116{fill:none;stroke:#fff;stroke-miterlimit:10;stroke-width:2px;}.cls-117{font-size:33.16px;}.cls-117,.cls-118{fill:#fff;font-family:IndieFlower, Indie Flower;}.cls-118{font-size:33.16px;}</style><linearGradient id="linear-gradient" x1="342.86" y1="15.53" x2="508.72" y2="302.81" gradientUnits="userSpaceOnUse"><stop offset="0.06" stop-color="#200041"/><stop offset="0.26" stop-color="#210243"/><stop offset="0.36" stop-color="#25084b"/><stop offset="0.43" stop-color="#2c1358"/><stop offset="0.47" stop-color="#311b61"/><stop offset="0.48" stop-color="#351f65"/><stop offset="0.5" stop-color="#422c73"/><stop offset="0.51" stop-color="#584188"/><stop offset="0.52" stop-color="#765fa7"/><stop offset="0.53" stop-color="#8770b8"/><stop offset="0.54" stop-color="#7e67ae"/><stop offset="0.56" stop-color="#5c468d"/><stop offset="0.59" stop-color="#442e75"/><stop offset="0.61" stop-color="#362066"/><stop offset="0.63" stop-color="#311b61"/><stop offset="0.67" stop-color="#2a1155"/><stop offset="0.75" stop-color="#230446"/><stop offset="0.81" stop-color="#200041"/><stop offset="1" stop-color="#200041"/></linearGradient><radialGradient id="radial-gradient" cx="600.61" cy="132.25" r="311.26" gradientUnits="userSpaceOnUse"><stop offset="0" stop-color="#711f56"/><stop offset="0.16" stop-color="#6c1e52"/><stop offset="0.36" stop-color="#5c1946"/><stop offset="0.58" stop-color="#431233"/><stop offset="0.82" stop-color="#200918"/><stop offset="1"/></radialGradient><radialGradient id="radial-gradient-2" cx="548.54" cy="110.01" r="183.37" gradientUnits="userSpaceOnUse"><stop offset="0" stop-color="#af8afc"/><stop offset="1" stop-color="#10054d"/></radialGradient><linearGradient id="linear-gradient-2" x1="563.32" y1="280.46" x2="56.39" y2="121.77" gradientUnits="userSpaceOnUse"><stop offset="0.19" stop-color="#3d065f"/><stop offset="0.93" stop-color="#3d065f"/></linearGradient><linearGradient id="linear-gradient-3" x1="569.93" y1="476.65" x2="312.5" y2="-67.31" gradientUnits="userSpaceOnUse"><stop offset="0" stop-color="#311b61"/><stop offset="0.2" stop-color="#290f52"/><stop offset="0.49" stop-color="#200041"/><stop offset="1" stop-color="#0f001f"/></linearGradient><linearGradient id="linear-gradient-4" x1="381.25" y1="248.77" x2="542.92" y2="248.77" xlink:href="#linear-gradient-3"/><linearGradient id="linear-gradient-5" x1="530.34" y1="471.4" x2="395.9" y2="32.91" gradientUnits="userSpaceOnUse"><stop offset="0" stop-color="#a56ef4"/><stop offset="0.21" stop-color="#a186d3"/><stop offset="0.41" stop-color="#9e98bc"/><stop offset="0.53" stop-color="#9d9eb3"/><stop offset="0.62" stop-color="#a4a4b8"/><stop offset="0.75" stop-color="#b7b7c7"/><stop offset="0.9" stop-color="#d6d4df"/><stop offset="1" stop-color="#eeebf2"/></linearGradient><linearGradient id="linear-gradient-6" x1="473.44" y1="9092.22" x2="502.37" y2="9092.22" gradientTransform="matrix(-0.5, 1.44, -0.87, 0.5, 8676.69, -5054.49)" xlink:href="#linear-gradient-3"/><linearGradient id="linear-gradient-7" x1="566.32" y1="196.18" x2="546.38" y2="195.32" gradientUnits="userSpaceOnUse"><stop offset="0" stop-color="#3d065f"/><stop offset="1" stop-color="#5f27bd"/></linearGradient><radialGradient id="radial-gradient-3" cx="556.29" cy="187.67" r="11.71" xlink:href="#radial-gradient"/><linearGradient id="linear-gradient-8" x1="385.64" y1="499.74" x2="464.79" y2="284.89" gradientUnits="userSpaceOnUse"><stop offset="0" stop-color="#112a6c"/><stop offset="0.14" stop-color="#114280"/><stop offset="0.43" stop-color="#1380b4"/><stop offset="0.48" stop-color="#138bbd"/><stop offset="0.71" stop-color="#169ac7"/><stop offset="1" stop-color="#1cb5d7"/></linearGradient><linearGradient id="Linear_Gradient_1" x1="526.22" y1="437.38" x2="564.85" y2="480.72" gradientUnits="userSpaceOnUse"><stop offset="0" stop-color="#fff"/><stop offset="1"/></linearGradient><linearGradient id="New_Gradient_Swatch_copy_13" x1="335" y1="270.44" x2="457.94" y2="132.71" gradientUnits="userSpaceOnUse"><stop offset="0.04" stop-color="#6b24d6"/><stop offset="0.29" stop-color="#7733dc"/><stop offset="0.79" stop-color="#975ced"/><stop offset="1" stop-color="#a56ef4"/></linearGradient><radialGradient id="Radial_Gradient_1" cx="327.68" cy="241.47" r="83.93" xlink:href="#Linear_Gradient_1"/><linearGradient id="New_Gradient_Swatch_copy_13-2" x1="326.45" y1="296.41" x2="408.43" y2="642.24" xlink:href="#New_Gradient_Swatch_copy_13"/><radialGradient id="Radial_Gradient_1-2" cx="588.69" cy="661.74" r="292.4" gradientTransform="translate(422.82 54.03) rotate(60.08)" xlink:href="#Linear_Gradient_1"/><radialGradient id="Radial_Gradient_1-3" cx="588.69" cy="661.74" r="292.4" xlink:href="#Linear_Gradient_1"/><radialGradient id="Radial_Gradient_1-4" cx="588.69" cy="661.74" r="292.4" xlink:href="#Linear_Gradient_1"/><radialGradient id="New_Gradient_Swatch_copy_22" cx="347.89" cy="402.99" r="7.28" gradientUnits="userSpaceOnUse"><stop offset="0" stop-color="#eeebf2"/><stop offset="0.58" stop-color="#d4d1d8"/><stop offset="0.94" stop-color="#a5a6b9"/><stop offset="1" stop-color="#9d9eb3"/></radialGradient><radialGradient id="Radial_Gradient_1-5" cx="347.61" cy="402.33" r="6.99" xlink:href="#Linear_Gradient_1"/><linearGradient id="linear-gradient-9" x1="141.23" y1="418.41" x2="114.15" y2="382.14" gradientUnits="userSpaceOnUse"><stop offset="0.06" stop-color="#2d2f32"/><stop offset="0.15" stop-color="#43464a"/><stop offset="0.25" stop-color="#5d6066"/><stop offset="0.48" stop-color="#1e1f21"/><stop offset="1" stop-color="#46484d"/></linearGradient><linearGradient id="linear-gradient-10" x1="105" y1="405.03" x2="135.86" y2="405.03" gradientTransform="translate(220.88 -5.41) rotate(30.31)" gradientUnits="userSpaceOnUse"><stop offset="0.04" stop-color="#1e1f21"/><stop offset="0.31" stop-color="#2c2e30"/><stop offset="0.84" stop-color="#515359"/><stop offset="1" stop-color="#5d6066"/></linearGradient><radialGradient id="Radial_Gradient_1-6" cx="123.61" cy="404.51" r="16.67" xlink:href="#Linear_Gradient_1"/><linearGradient id="linear-gradient-11" x1="109.06" y1="405.28" x2="132.82" y2="405.28" gradientUnits="userSpaceOnUse"><stop offset="0" stop-color="#bcbec0"/><stop offset="1" stop-color="#e6e7e8"/></linearGradient><linearGradient id="New_Gradient_Swatch_copy_10" x1="108.32" y1="405.58" x2="132.08" y2="405.58" gradientUnits="userSpaceOnUse"><stop offset="0.04" stop-color="#9d9eb3"/><stop offset="0.58" stop-color="#d4d1d8"/><stop offset="1" stop-color="#eeebf2"/></linearGradient><linearGradient id="linear-gradient-12" x1="287.59" y1="502.33" x2="260.52" y2="466.05" xlink:href="#linear-gradient-9"/><linearGradient id="linear-gradient-13" x1="251.37" y1="488.94" x2="282.22" y2="488.94" gradientTransform="matrix(1, 0, 0, 1, 0, 0)" xlink:href="#linear-gradient-10"/><radialGradient id="Radial_Gradient_1-7" cx="269.97" cy="488.42" r="16.67" xlink:href="#Linear_Gradient_1"/><linearGradient id="linear-gradient-14" x1="255.42" y1="489.2" x2="279.19" y2="489.2" xlink:href="#linear-gradient-11"/><linearGradient id="New_Gradient_Swatch_copy_10-2" x1="254.68" y1="489.49" x2="278.45" y2="489.49" xlink:href="#New_Gradient_Swatch_copy_10"/><radialGradient id="New_Gradient_Swatch_copy_22-2" cx="228.88" cy="307.16" r="227.4" xlink:href="#New_Gradient_Swatch_copy_22"/><radialGradient id="Radial_Gradient_1-8" cx="194.16" cy="393.37" r="107.12" xlink:href="#Linear_Gradient_1"/><linearGradient id="linear-gradient-15" x1="273.77" y1="414.81" x2="346.75" y2="414.81" gradientUnits="userSpaceOnUse"><stop offset="0" stop-color="#10054d"/><stop offset="1" stop-color="#363885"/></linearGradient><linearGradient id="linear-gradient-16" x1="242.51" y1="418.91" x2="269.24" y2="418.91" xlink:href="#linear-gradient-15"/><linearGradient id="linear-gradient-17" x1="350.34" y1="501.55" x2="338.81" y2="490.56" gradientTransform="matrix(1, 0, 0, 1, 0, 0)" xlink:href="#linear-gradient-10"/><linearGradient id="linear-gradient-18" x1="293.38" y1="487.17" x2="314.38" y2="487.17" xlink:href="#linear-gradient-11"/><linearGradient id="linear-gradient-19" x1="304.3" y1="491.89" x2="303.82" y2="476.34" gradientUnits="userSpaceOnUse"><stop offset="0" stop-color="#9c9c9c"/><stop offset="0" stop-color="#9d9d9d"/><stop offset="0.31" stop-color="#c7c7c7"/><stop offset="0.59" stop-color="#e6e6e6"/><stop offset="0.83" stop-color="#f8f8f8"/><stop offset="1" stop-color="#fff"/></linearGradient><linearGradient id="linear-gradient-20" x1="361.65" y1="455.38" x2="369.61" y2="455.38" xlink:href="#linear-gradient-11"/><linearGradient id="linear-gradient-21" x1="361.65" y1="455.38" x2="369.18" y2="455.38" xlink:href="#linear-gradient-19"/><linearGradient id="linear-gradient-22" x1="273.79" y1="399.37" x2="342.13" y2="399.37" gradientUnits="userSpaceOnUse"><stop offset="0" stop-color="#9c9c9c"/><stop offset="0.01" stop-color="#999"/><stop offset="0.26" stop-color="#636363"/><stop offset="0.49" stop-color="#383838"/><stop offset="0.7" stop-color="#191919"/><stop offset="0.88" stop-color="#070707"/><stop offset="1"/></linearGradient><linearGradient id="linear-gradient-23" x1="361.73" y1="403.93" x2="171.85" y2="302.16" gradientUnits="userSpaceOnUse"><stop offset="0" stop-color="#d1d3d4"/><stop offset="0.19" stop-color="#979899"/><stop offset="0.4" stop-color="#616263"/><stop offset="0.59" stop-color="#373838"/><stop offset="0.76" stop-color="#191919"/><stop offset="0.9" stop-color="#070707"/><stop offset="1"/></linearGradient><linearGradient id="linear-gradient-24" x1="272.68" y1="444.21" x2="254.19" y2="455.71" gradientUnits="userSpaceOnUse"><stop offset="0" stop-color="#696969"/><stop offset="0.24" stop-color="#9c9c9c"/><stop offset="0.48" stop-color="#c7c7c7"/><stop offset="0.69" stop-color="#e6e6e6"/><stop offset="0.87" stop-color="#f8f8f8"/><stop offset="1" stop-color="#fff"/></linearGradient><radialGradient id="New_Gradient_Swatch_copy_22-3" cx="261.61" cy="439.22" r="9.78" xlink:href="#New_Gradient_Swatch_copy_22"/><radialGradient id="Radial_Gradient_1-9" cx="259.54" cy="431.11" r="11.31" xlink:href="#Linear_Gradient_1"/><linearGradient id="linear-gradient-25" x1="185.09" y1="446.88" x2="194.13" y2="432.01" xlink:href="#linear-gradient-19"/><linearGradient id="linear-gradient-26" x1="82.63" y1="386.98" x2="90.7" y2="373.7" xlink:href="#linear-gradient-19"/><linearGradient id="linear-gradient-27" x1="282.07" y1="484.59" x2="371.18" y2="484.59" xlink:href="#linear-gradient-9"/><linearGradient id="linear-gradient-28" x1="299.14" y1="486.63" x2="310.98" y2="486.63" xlink:href="#linear-gradient-11"/><linearGradient id="linear-gradient-29" x1="347.56" y1="487.49" x2="352.86" y2="487.49" gradientTransform="matrix(-1, 0, 0, 1, 659.67, 0)" gradientUnits="userSpaceOnUse"><stop offset="0" stop-color="#bcbec0"/><stop offset="0.69" stop-color="#e9eaea"/><stop offset="1" stop-color="#fff"/></linearGradient><linearGradient id="linear-gradient-30" x1="295.05" y1="487.48" x2="304.46" y2="487.48" xlink:href="#linear-gradient-11"/><linearGradient id="linear-gradient-31" x1="354.31" y1="488.16" x2="358.52" y2="488.16" xlink:href="#linear-gradient-29"/><linearGradient id="linear-gradient-32" x1="362.5" y1="457.23" x2="367.74" y2="457.23" xlink:href="#linear-gradient-11"/><linearGradient id="linear-gradient-33" x1="291.17" y1="457.33" x2="294.78" y2="457.33" xlink:href="#linear-gradient-29"/><linearGradient id="linear-gradient-34" x1="364.78" y1="452.92" x2="368.61" y2="452.92" xlink:href="#linear-gradient-11"/><linearGradient id="linear-gradient-35" x1="290.5" y1="452.99" x2="293.14" y2="452.99" xlink:href="#linear-gradient-29"/><radialGradient id="New_Gradient_Swatch_copy_20" cx="298.48" cy="-3187.2" r="4.03" gradientTransform="translate(0 5797.37) scale(1 1.67)" gradientUnits="userSpaceOnUse"><stop offset="0" stop-color="#feeca8"/><stop offset="1" stop-color="#ffa98c"/></radialGradient><radialGradient id="Radial_Gradient_1-10" cx="350.69" cy="481.21" r="33.08" xlink:href="#Linear_Gradient_1"/><linearGradient id="linear-gradient-36" x1="403.97" y1="458.11" x2="286.23" y2="443.66" xlink:href="#linear-gradient-23"/><linearGradient id="linear-gradient-37" x1="172.15" y1="408.95" x2="181.36" y2="393.72" xlink:href="#linear-gradient-22"/><linearGradient id="New_Gradient_Swatch_copy_13-3" x1="69.85" y1="371.83" x2="77.26" y2="371.83" xlink:href="#New_Gradient_Swatch_copy_13"/><radialGradient id="Radial_Gradient_1-11" cx="169.93" cy="376.66" r="84.44" xlink:href="#Linear_Gradient_1"/><linearGradient id="linear-gradient-38" x1="245.22" y1="439.19" x2="252.22" y2="439.19" xlink:href="#linear-gradient-19"/><radialGradient id="New_Gradient_Swatch_copy_22-4" cx="245.55" cy="436.71" r="6.79" xlink:href="#New_Gradient_Swatch_copy_22"/><linearGradient id="linear-gradient-39" x1="227.95" y1="429.89" x2="234.95" y2="429.89" xlink:href="#linear-gradient-19"/><radialGradient id="New_Gradient_Swatch_copy_22-5" cx="228.29" cy="427.41" r="6.79" xlink:href="#New_Gradient_Swatch_copy_22"/><radialGradient id="White_Black_Radial" cx="218.01" cy="392.78" r="26.9" xlink:href="#Linear_Gradient_1"/><linearGradient id="New_Gradient_Swatch_copy_25" x1="74.19" y1="314.57" x2="188.22" y2="379.18" gradientUnits="userSpaceOnUse"><stop offset="0" stop-color="#25054d"/><stop offset="1" stop-color="#45108a"/></linearGradient><linearGradient id="New_Gradient_Swatch_copy_25-2" x1="74.1" y1="314.72" x2="188.14" y2="379.34" xlink:href="#New_Gradient_Swatch_copy_25"/><linearGradient id="New_Gradient_Swatch_copy_25-3" x1="74.04" y1="314.83" x2="188.08" y2="379.44" xlink:href="#New_Gradient_Swatch_copy_25"/><linearGradient id="New_Gradient_Swatch_copy_25-4" x1="74" y1="314.91" x2="188.03" y2="379.52" xlink:href="#New_Gradient_Swatch_copy_25"/><linearGradient id="New_Gradient_Swatch_copy_25-5" x1="73.96" y1="314.97" x2="188" y2="379.59" xlink:href="#New_Gradient_Swatch_copy_25"/><linearGradient id="New_Gradient_Swatch_copy_25-6" x1="73.89" y1="315.11" x2="187.92" y2="379.72" xlink:href="#New_Gradient_Swatch_copy_25"/><linearGradient id="New_Gradient_Swatch_copy_25-7" x1="73.82" y1="315.22" x2="187.85" y2="379.84" xlink:href="#New_Gradient_Swatch_copy_25"/><linearGradient id="New_Gradient_Swatch_copy_25-8" x1="73.77" y1="315.31" x2="187.8" y2="379.92" xlink:href="#New_Gradient_Swatch_copy_25"/><linearGradient id="New_Gradient_Swatch_copy_25-9" x1="67.29" y1="326.75" x2="181.32" y2="391.36" xlink:href="#New_Gradient_Swatch_copy_25"/><linearGradient id="New_Gradient_Swatch_copy_25-10" x1="67.3" y1="326.74" x2="181.33" y2="391.35" xlink:href="#New_Gradient_Swatch_copy_25"/><linearGradient id="New_Gradient_Swatch_copy_25-11" x1="67.3" y1="326.73" x2="181.34" y2="391.34" xlink:href="#New_Gradient_Swatch_copy_25"/><linearGradient id="New_Gradient_Swatch_copy_25-12" x1="67.31" y1="326.72" x2="181.34" y2="391.33" xlink:href="#New_Gradient_Swatch_copy_25"/><linearGradient id="New_Gradient_Swatch_copy_25-13" x1="67.31" y1="326.71" x2="181.35" y2="391.32" xlink:href="#New_Gradient_Swatch_copy_25"/><linearGradient id="New_Gradient_Swatch_copy_25-14" x1="67.32" y1="326.7" x2="181.35" y2="391.31" xlink:href="#New_Gradient_Swatch_copy_25"/><linearGradient id="New_Gradient_Swatch_copy_25-15" x1="67.32" y1="326.69" x2="181.36" y2="391.3" xlink:href="#New_Gradient_Swatch_copy_25"/><linearGradient id="New_Gradient_Swatch_copy_25-16" x1="67.33" y1="326.68" x2="181.36" y2="391.29" xlink:href="#New_Gradient_Swatch_copy_25"/><linearGradient id="New_Gradient_Swatch_copy_25-17" x1="67.33" y1="326.67" x2="181.37" y2="391.28" xlink:href="#New_Gradient_Swatch_copy_25"/><linearGradient id="New_Gradient_Swatch_copy_25-18" x1="67.34" y1="326.66" x2="181.37" y2="391.27" xlink:href="#New_Gradient_Swatch_copy_25"/><linearGradient id="New_Gradient_Swatch_copy_18" x1="480.77" y1="204.57" x2="438.7" y2="108.97" gradientUnits="userSpaceOnUse"><stop offset="0.04" stop-color="#9f19ab"/><stop offset="0.16" stop-color="#ae25b1"/><stop offset="0.41" stop-color="#d744bf"/><stop offset="0.63" stop-color="#ff63ce"/><stop offset="0.87" stop-color="#dc48c1"/></linearGradient><linearGradient id="New_Gradient_Swatch_copy_9" x1="406.77" y1="194.51" x2="488.57" y2="127.86" gradientUnits="userSpaceOnUse"><stop offset="0.04" stop-color="#9f19ab"/><stop offset="0.24" stop-color="#ae25b1"/><stop offset="0.65" stop-color="#d744bf"/><stop offset="1" stop-color="#ff63ce"/></linearGradient><radialGradient id="Radial_Gradient_1-12" cx="467.75" cy="147.78" r="41.16" xlink:href="#Linear_Gradient_1"/><linearGradient id="New_Gradient_Swatch_copy_10-3" x1="-68.8" y1="2122.65" x2="-87.65" y2="2108.4" gradientTransform="matrix(0.5, 0.87, -0.58, 1, 1724.79, -1891.81)" xlink:href="#New_Gradient_Swatch_copy_10"/><linearGradient id="Linear_Gradient_1-2" x1="578.18" y1="308.48" x2="525.28" y2="279.29" xlink:href="#Linear_Gradient_1"/><radialGradient id="radial-gradient-4" cx="-274.61" cy="-4484.98" r="102.65" gradientTransform="matrix(0.33, 0, 0, 0.42, 560.49, 2018.72)" gradientUnits="userSpaceOnUse"><stop offset="0" stop-color="#ba348e"/><stop offset="0.13" stop-color="#8a276a"/><stop offset="0.27" stop-color="#601b4a"/><stop offset="0.41" stop-color="#3e112f"/><stop offset="0.55" stop-color="#230a1a"/><stop offset="0.7" stop-color="#0f040c"/><stop offset="0.85" stop-color="#040103"/><stop offset="1"/></radialGradient></defs><title>Asset 3</title><g class="cls-1"><g id="Layer_2" data-name="Layer 2"><g id="Layer_1-2" data-name="Layer 1"><g class="cls-2"><path class="cls-3" d="M556.4,508.61a27.52,27.52,0,0,1-13.71-3.31l-83.27-47.39-83.27-47.39c-5-2.88-7.87-7.45-7.87-12.53,0-5.57,3.45-10.75,9.47-14.23l54.5-30.66a33.76,33.76,0,0,1,16.65-4.23,27.46,27.46,0,0,1,13.71,3.3l83.28,47.39L629.16,447c5,2.89,7.87,7.46,7.87,12.53,0,5.57-3.46,10.75-9.48,14.23l-54.49,30.66A33.8,33.8,0,0,1,556.4,508.61Z"/><path class="cls-4" d="M379.23,384.94,394,376.69c.6-.35,28.33-15.47,28.85-15.17l9.53-4.67c4.3-2.48,10.62-3.31,16.08-3.31A28.26,28.26,0,0,1,461.71,357l66.67,38,14.23,8.1,80.89,46.08a17.26,17.26,0,0,1,6.28,6.12,12.9,12.9,0,0,1,1.66,5.83c.16,5.35-3.13,10.42-9.05,13.84l-14.78,8.24c-.6.35-28.33,15.48-28.85,15.18L569.22,503c-4.29,2.48-10.61,3.3-16.07,3.3a28.14,28.14,0,0,1-13.24-3.45l-66.68-38L459,456.8l-80.89-46.08a17.29,17.29,0,0,1-6.29-6.12,12.85,12.85,0,0,1-1.65-5.83C370,393.42,373.31,388.35,379.23,384.94Z"/><path class="cls-5" d="M380.71,386.11l14.38-7.95c1.2-.69,27.16-14.35,28.2-13.75l9.25-3.81c3.87-2.24,10.59-2.38,15.51-2.38a29.21,29.21,0,0,1,12.76,3.59l64.71,36.9,13.8,7.87,78.52,44.77a18.82,18.82,0,0,1,6.2,5.82,12.67,12.67,0,0,1,1.8,5.55c.32,5.13-2.79,10.09-8.61,13.45l-14.38,7.94c-1.21.7-27.17,14.35-28.21,13.75l-9.25,3.82c-3.87,2.23-10.59,2.38-15.5,2.38a29.13,29.13,0,0,1-12.76-3.6l-64.72-36.9-13.8-7.87-78.52-44.77a18.62,18.62,0,0,1-6.2-5.82,12.63,12.63,0,0,1-1.8-5.54C371.77,394.42,374.89,389.47,380.71,386.11Z"/><path class="cls-6" d="M382.18,387.28l14-7.65c1.81-1,26-13.23,27.56-12.32l9-3c3.43-2,10.56-1.45,14.93-1.45,3.8,0,9.56,2.17,12.28,3.74l62.76,35.82L536,410.09l76.15,43.46a20.75,20.75,0,0,1,6.11,5.53,12.49,12.49,0,0,1,2,5.25c.48,4.92-2.47,9.76-8.19,13.06l-14,7.65c-1.8,1-26,13.23-27.56,12.33l-9,3c-3.44,2-10.56,1.45-14.93,1.45-3.8,0-9.56-2.17-12.29-3.74l-62.76-35.82-13.38-7.64-76.14-43.46a20.64,20.64,0,0,1-6.12-5.52,12.53,12.53,0,0,1-1.95-5.26C373.52,395.42,376.46,390.58,382.18,387.28Z"/><path class="cls-7" d="M383.66,388.45l13.58-7.35c2.41-1.39,24.83-12.11,26.91-10.9l8.68-2.11c3-1.74,10.53-.52,14.36-.52,3.32,0,9.43,2.51,11.81,3.88l60.8,34.74,13,7.41,73.77,42.15a23.41,23.41,0,0,1,6,5.23,12.45,12.45,0,0,1,2.1,5c.64,4.7-2.14,9.43-7.76,12.67L593.32,486c-2.41,1.39-24.83,12.11-26.91,10.9L557.73,499c-3,1.74-10.54.53-14.36.53-3.33,0-9.43-2.51-11.81-3.89l-60.8-34.74-13-7.41L384,411.32a23,23,0,0,1-6-5.22,12.41,12.41,0,0,1-2.1-5C375.26,396.42,378,391.7,383.66,388.45Z"/><path class="cls-8" d="M385.13,389.63l13.19-7.06c3-1.74,23.65-11,26.26-9.48l8.4-1.25c2.58-1.49,10.5.4,13.78.4,2.85,0,9.29,2.85,11.34,4l58.84,33.66,12.54,7.18L600.87,458c1.57.91,5.07,3.63,6,4.93a12.52,12.52,0,0,1,2.25,4.69c.8,4.49-1.81,9.09-7.33,12.28l-13.19,7.06c-3,1.73-23.65,11-26.26,9.47l-8.4,1.26c-2.57,1.49-10.5-.41-13.78-.41-2.85,0-9.29-2.85-11.34-4l-58.83-33.66-12.55-7.18L386,411.52a27,27,0,0,1-5.95-4.93,12.48,12.48,0,0,1-2.25-4.68C377,397.42,379.61,392.81,385.13,389.63Z"/><path class="cls-9" d="M386.61,390.8,399.4,384C403,382,421.88,374.18,425,376l8.11-.41c2.15-1.24,10.48,1.34,13.21,1.34,2.38,0,9.16,3.19,10.86,4.17l56.88,32.58,12.13,6.95,69,39.53a32,32,0,0,1,5.87,4.63,13,13,0,0,1,2.4,4.4c1,4.28-1.49,8.77-6.9,11.89l-12.79,6.77c-3.61,2.08-22.49,9.85-25.62,8.05l-8.11.4c-2.15,1.24-10.48-1.33-13.21-1.33-2.37,0-9.16-3.19-10.86-4.18L469.11,458.2,457,451.25l-69-39.53c-1.3-.75-5.11-3.57-5.86-4.63a12.58,12.58,0,0,1-2.4-4.4C378.74,398.42,381.19,393.93,386.61,390.8Z"/><path class="cls-10" d="M388.08,392l12.39-6.46c4.22-2.44,21.32-8.74,25-6.63l7.83.45c1.72-1,10.45,2.26,12.63,2.26,1.9,0,9,3.53,10.39,4.32l54.92,31.5,11.71,6.72,66.63,38.22a38.76,38.76,0,0,1,5.78,4.34,13.17,13.17,0,0,1,2.56,4.11c1.12,4.06-1.16,8.43-6.48,11.5L579,488.77c-4.21,2.43-21.31,8.73-25,6.62l-7.83-.45c-1.72,1-10.45-2.26-12.64-2.26-1.9,0-9-3.53-10.38-4.32l-54.92-31.5-11.71-6.72-66.64-38.22a40.51,40.51,0,0,1-5.78-4.33,13.29,13.29,0,0,1-2.55-4.12C380.48,399.41,382.77,395,388.08,392Z"/><path class="cls-11" d="M389.56,393.14l12-6.16c4.82-2.78,20.15-7.61,24.32-5.21l7.54,1.31c1.29-.75,10.43,3.19,12.07,3.19,1.42,0,8.88,3.87,9.9,4.46l53,30.42,11.29,6.49,64.25,36.91c.79.45,5.34,3.34,5.7,4a8.67,8.67,0,0,1,2.71,3.83c1.29,3.84-.83,8.1-6,11.11l-12,6.17c-4.82,2.78-20.15,7.61-24.32,5.2l-7.54-1.31c-1.29.75-10.43-3.18-12.07-3.18-1.42,0-8.88-3.88-9.91-4.47l-53-30.42L456.17,449l-64.26-36.91c-.78-.45-5.33-3.34-5.69-4a8.73,8.73,0,0,1-2.71-3.83C382.22,400.41,384.34,396.16,389.56,393.14Z"/><path class="cls-12" d="M391,394.32l11.59-5.88c5.42-3.12,19-6.48,23.67-3.77l7.26,2.16c.86-.5,10.39,4.11,11.49,4.11.95,0,8.75,4.22,9.43,4.61l51,29.34,10.87,6.26,61.88,35.6c.52.3,5.37,3.28,5.61,3.74A8.38,8.38,0,0,1,586.7,474c1.47,3.63-.49,7.77-5.61,10.73l-11.6,5.87c-5.41,3.13-19,6.48-23.66,3.77l-7.27-2.15c-.86.49-10.39-4.12-11.49-4.12s-8.75-4.21-9.43-4.61l-51-29.34-10.88-6.26-61.87-35.6c-.53-.3-5.38-3.27-5.62-3.74a8.46,8.46,0,0,1-2.85-3.54C384,401.41,385.92,397.27,391,394.32Z"/><path class="cls-13" d="M392.51,395.49l11.19-5.58c6-3.47,17.81-5.36,23-2.35l7,3c.43-.24,10.37,5.05,10.92,5.05s8.62,4.55,9,4.75l49,28.26,10.46,6L572.58,469c.26.15,5.41,3.21,5.53,3.44a8.27,8.27,0,0,1,3,3.26c1.65,3.41-.17,7.44-5.19,10.33l-11.19,5.58c-6,3.47-17.81,5.36-23,2.35l-7-3c-.43.25-10.37-5-10.91-5s-8.62-4.56-9-4.76l-49.05-28.26-10.45-6-59.5-34.29c-.26-.15-5.41-3.21-5.53-3.44a8.38,8.38,0,0,1-3-3.26C385.68,402.42,387.49,398.39,392.51,395.49Z"/><path d="M537.59,493.42,465,451.5l-72.61-41.92c-5.73-3.31-5-9.1,1.61-12.92l10.79-5.28c6.62-3.82,16.64-4.24,22.37-.92l72.61,41.92,72.61,41.91c5.73,3.32,5,9.1-1.61,12.92L560,492.49C553.34,496.31,543.33,496.73,537.59,493.42Z"/></g><path class="cls-14" d="M537.69,483.35,410.72,410c-14.33-8.27-25.94-30.46-25.94-49.56V22.33c0-9.71-8-11.86-3.15-15.35.19-.13,11.34-5.2,11.55-5.28,5.21-2,10.77-2.88,17.54,1L537.69,76c14.33,8.27,25.94,30.46,25.94,49.56V463.74c0,10.15-3.28,17.38-8.5,20.69-.31.2-13.75,6.59-14.09,6.7C536.41,492.68,544,487,537.69,483.35Z"/><path class="cls-15" d="M536.52,76.42l-127-73.31c-6.77-3.9,120,75.65,120,75.65,14.33,8.27,25.94,30.46,25.94,49.56,0,0,7,346,7,335.81V126C562.46,106.88,550.85,84.69,536.52,76.42Z"/><path class="cls-16" d="M527.83,487.86l-127-73.31c-14.32-8.27-25.93-30.46-25.93-49.56V26.84c0-19.1,11.61-27.88,25.93-19.61l127,73.31c14.32,8.27,25.93,30.46,25.93,49.55V468.25C553.76,487.35,542.15,496.13,527.83,487.86Z"/><path class="cls-17" d="M525.57,489.08l-127-73.31c-14.32-8.27-25.93-30.46-25.93-49.55V28.06C372.66,9,384.27.18,398.59,8.45l127,73.31c14.32,8.27,25.93,30.46,25.93,49.56V469.47C551.5,488.57,539.89,497.35,525.57,489.08Z"/><path class="cls-18" d="M376.2,368.47V29.89c0-16.74,10.17-24.43,22.73-17.18l126.3,72.92C537.79,92.88,548,112.32,548,129.07V467.64c0,16.74-10.18,24.43-22.74,17.18L398.93,411.9C386.37,404.65,376.2,385.21,376.2,368.47Z"/><path class="cls-19" d="M381.25,370.52V33.67c0-14,8.52-20.46,19-14.39L523.89,90.65c10.51,6.06,19,22.34,19,36.36V463.86c0,14-8.52,20.46-19,14.39L400.28,406.88C389.77,400.82,381.25,384.54,381.25,370.52Z"/><path class="cls-20" d="M401.71,23c-9.91-5.72-17.94-1.14-17.94,10.22V373.88c0,11.36,8,25.21,17.94,30.93l120.75,69.71c9.9,5.72,17.93,1.15,17.93-10.22V123.65c0-11.36-8-25.21-17.93-30.93Z"/><path class="cls-21" d="M554.91,209.56V186.73c0-2.92,1.78-6.31,4-7.57h0c2.19-1.27,4,.07,4,3V205c0,2.92-1.77,6.31-4,7.58h0C556.69,213.82,554.91,212.48,554.91,209.56Z"/><path class="cls-22" d="M557.3,212.17c-1.13,0-1.53-1.41-1.53-2.61V186.73c0-2.6,1.62-5.73,3.54-6.83a2.31,2.31,0,0,1,1.14-.36c1.13,0,1.53,1.41,1.53,2.61V205c0,2.6-1.61,5.73-3.53,6.83A2.35,2.35,0,0,1,557.3,212.17Z"/><path class="cls-23" d="M556.94,210.14V187.32c0-2.6,1.62-5.73,3.54-6.84a2.44,2.44,0,0,1,1-.33,1.19,1.19,0,0,0-1-.61,2.31,2.31,0,0,0-1.14.36c-1.92,1.1-3.54,4.23-3.54,6.83v22.83c0,1.2.4,2.61,1.53,2.61l.13,0A3.87,3.87,0,0,1,556.94,210.14Z"/><path class="cls-24" d="M522.46,92.72,401.71,23c-9.91-5.72-17.94-1.14-17.94,10.22V373.88c0,11.36,8,25.21,17.94,30.93l120.75,69.71c9.9,5.72,17.93,1.15,17.93-10.22V123.65C540.39,112.29,532.36,98.44,522.46,92.72ZM538.83,464.3c0,3.53-.83,6.43-2.4,8.39a7.33,7.33,0,0,1-5.92,2.74h0a14.89,14.89,0,0,1-7.27-2.26L402.49,403.46c-9.46-5.46-17.16-18.73-17.16-29.58V33.23c0-6.86,3.19-11.13,8.33-11.13a14.92,14.92,0,0,1,7.27,2.26L521.68,94.07c9.45,5.46,17.15,18.73,17.15,29.58Z"/><g class="cls-25"><polygon class="cls-26" points="490.18 443.69 446.82 385.33 419.94 328.51 410.61 283.35 383.77 248.1 383.77 314.08 395 324.59 412.14 357.84 409.97 371.01 416.91 381.49 422.11 378.52 461.32 439.23 495.28 458.83 490.18 443.69"/><path class="cls-27" d="M520.34,160.58l20,11.58v-4.35l-20-11.58V91.49l-3.77-2.17v64.73l-12.47-7.19-11.67-30.31L383.77,53.81v4.36l23.75,13.71v56.91l-23.75-13.71v4.35l23.75,13.71v38.79l-23.75-13.75v4.36l27.52,15.93V135.32l81.36,47V268.4l-10.12-5.84-35,10.57-63.75-36.81v4.35l42.91,24.78v56.61l-42.91,19.1v4.13l44.38-19.76,39.27,67.06-37.1,28.74,3.53,2,62.84-48.68,19.88,11.38v82.82h3.77V388.23l19.74,11.31.31-.54v-3.63l-20-11.48V328.32l20,11.57v-4.35l-20-11.57V288.73l20,11.58V296l-20-11.58v-86.1l20,11.57V205.5l-20-11.58Zm-89.89,107,15.89,9.17.71.4,35-10.56,10.59,6.11V308l-15-8.63-47.23,21Zm86.12,114.1-20.19-11.56-25.95,20.1L431.62,324l45.84-20.41,15.19,8.77v.11h.2l23.72,13.69Zm0-59.94-20.15-11.62V274.92l20.15,11.64Zm0-39.58-20.15-11.64v-86.1l20.15,11.63Zm0-90.46L411.29,131V74.06l78.1,45.08,11.68,30.32,15.5,8.95Z"/><polygon class="cls-28" points="530.62 474.67 537.39 471.35 480.87 356.08 480.87 297.48 460.63 259.68 460.63 57.03 453.1 52.67 453.1 261.57 473.33 299.37 473.33 357.83 530.62 474.67"/></g><path class="cls-29" d="M493.52,466.68s24.28-14.93,39.58-29.21c14.13-13.19,22.61-33,22.61-33s7.54,59.36-3.77,69.73S493.52,466.68,493.52,466.68Z"/><path class="cls-30" d="M192.05,474.85,326.8,549.5a215.59,215.59,0,0,0,212.54-2l91.2-52.83V392.25L489.82,510.66,305.13,411.72Z"/><path class="cls-31" d="M449.61,203.45v14.38a10.88,10.88,0,0,1-6.87,10.11A33.1,33.1,0,0,1,413,225.25l-39.6-26.07a12.51,12.51,0,0,1-.89-20.61V137.74l-13.17,7.88c-27.16,16.24-26.93,55.67.42,71.59l39.05,22.69a50.93,50.93,0,0,0,53.68-1.5,16.71,16.71,0,0,0,7.5-13.09l.08-15.9Z"/><path class="cls-32" d="M448.54,201.62v16.21a9.75,9.75,0,0,1-6.19,9.11,32.07,32.07,0,0,1-28.76-2.6L374,198.27A11.41,11.41,0,0,1,372.53,180v-2.67a13.55,13.55,0,0,0,.32,22.79l39.6,26.07a34.29,34.29,0,0,0,30.69,2.78,11.9,11.9,0,0,0,7.53-11.1V205.28L459,210l-.08,15.23a15.72,15.72,0,0,1-7,12.26A49.58,49.58,0,0,1,399.36,239l-39-22.69a40.51,40.51,0,0,1-.42-69.76L372.53,139V136.5l-13.72,8.2a42.63,42.63,0,0,0,.44,73.43l39,22.69a51.7,51.7,0,0,0,54.81-1.53,17.89,17.89,0,0,0,8-14l.08-16.52Z"/><path class="cls-33" d="M431.19,237.5l-.18-2.12a43.24,43.24,0,0,0,8.17-1.5l.59,2.05A44.41,44.41,0,0,1,431.19,237.5Zm-8.73-.11a45.15,45.15,0,0,1-8.55-1.8l.65-2a43.07,43.07,0,0,0,8.13,1.72Zm25.43-4.68-1-1.9c1.09-.56,2.17-1.18,3.21-1.84a10.37,10.37,0,0,0,3-3l1.78,1.17a12.39,12.39,0,0,1-3.67,3.61C450.17,231.46,449,232.11,447.89,232.71Zm-42-.56L398.41,228l1-1.87,7.47,4.12Zm-14.95-8.24-7.48-4.12,1-1.86,7.48,4.12ZM374,214.53l-2.6-1.43a36.1,36.1,0,0,1-4.77-3.2l1.33-1.67a33.32,33.32,0,0,0,4.48,3l2.59,1.43Zm-13.48-10.94a32.72,32.72,0,0,1-4.25-7.7l2-.77a30.86,30.86,0,0,0,4,7.2Zm-6.28-16.26c-.1-1-.15-2-.16-3.07a34.52,34.52,0,0,1,.46-5.72l2.11.35a30.83,30.83,0,0,0-.43,5.17,28.48,28.48,0,0,0,.15,3.06Zm4.86-16.28-1.93-.91a32.8,32.8,0,0,1,4.77-7.38l1.62,1.38A30.67,30.67,0,0,0,359.13,171.05Z"/><path class="cls-34" d="M582.7,291.12l-18.44-15V326.6a72.5,72.5,0,0,1,8.91,101.13h0a137.66,137.66,0,0,1-175.76,31.48L180.79,332.71l-114.67,68L304.72,538a226.48,226.48,0,0,0,295.64-62.46l5-6.86A130,130,0,0,0,582.7,291.12Z"/><path class="cls-32" d="M583.89,289.66,564.81,274.1l-.23.29v4.37l16.93,13.82a128.05,128.05,0,0,1,22.35,174.94l-5,6.86a224.34,224.34,0,0,1-293.18,61.94L69.86,400.63,180.8,334.89l215.66,126a138.93,138.93,0,0,0,178.16-31.92,74.6,74.6,0,0,0-9.79-104.33l-.25.3v4.49a70.85,70.85,0,0,1,7.13,97.15,135.19,135.19,0,0,1-173.35,31.05L181.74,331.08l-1-.56L62.38,400.68l241.4,138.9a228.06,228.06,0,0,0,298.1-63l5-6.86A131.81,131.81,0,0,0,583.89,289.66Z"/><g class="cls-35"><rect class="cls-36" x="162.81" y="388.83" width="3.77" height="7.54" transform="translate(-257.73 339.52) rotate(-60.08)"/><path class="cls-37" d="M446.52,524.38l-.14-3.76c4.85-.18,9.75-.56,14.59-1.14l.44,3.75C456.48,523.81,451.47,524.2,446.52,524.38Zm-14.94,0c-5-.22-10-.65-14.88-1.26l.47-3.74c4.82.6,9.72,1,14.58,1.23Zm44.58-3.47-.74-3.7c4.76-1,9.54-2.12,14.21-3.46l1,3.62C485.91,518.7,481,519.89,476.16,520.87ZM402,520.62c-4.86-1-9.73-2.23-14.48-3.63l1.06-3.61c4.66,1.37,9.43,2.56,14.19,3.55Zm102.88-8-1.33-3.52c4.56-1.71,9.1-3.62,13.49-5.68l1.6,3.41C514.13,509,509.5,510.91,504.85,512.65Zm-131.51-.44c-4.63-1.77-9.24-3.75-13.72-5.89l1.63-3.4c4.39,2.1,8.91,4,13.44,5.77ZM531.86,500,530,496.71c4.23-2.41,8.4-5,12.41-7.74l2.12,3.11C540.44,494.87,536.18,497.53,531.86,500Zm-185.43-.64L333.61,492l1.88-3.26,12.82,7.37ZM320.8,484.6,308,477.23l1.88-3.27,12.82,7.37Zm235.72-1.41-2.36-2.94c3.77-3,7.48-6.27,11-9.62l2.59,2.74C564.16,476.78,560.37,480.09,556.52,483.19ZM295.17,469.85l-12.82-7.37,1.88-3.27,12.82,7.37Zm283-7.17-2.8-2.52c3.25-3.62,6.38-7.41,9.32-11.27l3,2.28C584.69,455.12,581.49,459,578.17,462.68ZM269.54,455.1l-12.82-7.37,1.88-3.27,12.82,7.38Zm-25.63-14.74L231.09,433l1.88-3.26,12.82,7.37Zm352.27-1.23-3.06-2.06a96.46,96.46,0,0,0,7-12.33l3.33,1.58A97.83,97.83,0,0,1,596.18,439.13Zm-377.9-13.52-12.82-7.37,1.88-3.27,12.82,7.37Zm390-13-3.46-1a92.14,92.14,0,0,0,3-13.56l3.58.51A96.5,96.5,0,0,1,608.24,412.57Zm-415.59-1.71-12.82-7.37,1.89-3.27,12.81,7.37Zm416-26.75a93.08,93.08,0,0,0-1.16-13.84l3.57-.57a96.2,96.2,0,0,1,1.2,14.38Zm-4.36-27.35a93.68,93.68,0,0,0-5.19-12.88l3.24-1.59a96.15,96.15,0,0,1,5.39,13.38Zm-12.26-24.83a93.21,93.21,0,0,0-7.71-9.61l-1.06-.94,2.4-2.69,1.2,1.06A95.42,95.42,0,0,1,595,329.87Z"/><polygon class="cls-38" points="577.27 315.1 572.46 310.81 572.27 306.18 579.42 312.7 577.27 315.1"/></g><path class="cls-39" d="M344.22,402.09l.64,9.84a2,2,0,0,0,3,1.54l6.23-3.82a2,2,0,0,0,.91-1.92l-1.26-9.8a2,2,0,0,0-3-1.37l-5.6,3.78A2,2,0,0,0,344.22,402.09Z"/><path class="cls-40" d="M345.93,413.3l-.64-9.83a2,2,0,0,1,.86-1.75l5.6-3.78a1.92,1.92,0,0,1,1.93-.15,2,2,0,0,0-3-1.23l-5.6,3.78a2,2,0,0,0-.86,1.75l.64,9.84a1.94,1.94,0,0,0,1.12,1.64A1.17,1.17,0,0,1,345.93,413.3Z"/><path class="cls-30" d="M75.43,399.19,256.79,503.93a77.23,77.23,0,0,0,76.89-.18l32.61-18.82a5,5,0,0,0,0-8.6L149.92,350.07a5,5,0,0,0-5,0L75.39,390.59A5,5,0,0,0,75.43,399.19Z"/><polygon class="cls-41" points="248.62 478.81 274.21 463.94 247.43 459.07 248.62 478.81"/><polygon class="cls-41" points="103.96 397.19 129.55 382.32 102.77 377.46 103.96 397.19"/><path class="cls-42" d="M144.79,408.86c0,4.78-1.65,8.16-4.33,9.8l-8.54,4.95c-2.79,1.56-1-2-5.24-4.42-8.52-4.92-15.43-16.84-15.43-26.61,0-4.84-4.47-4.88-1.73-6.49l9.08-5c2.78-1.5,6.57-1.22,10.76,1.19C137.89,387.17,144.79,399.09,144.79,408.86Z"/><ellipse class="cls-43" cx="120.43" cy="405.03" rx="12.56" ry="21.75" transform="matrix(0.86, -0.5, 0.5, 0.86, -187.95, 116.15)"/><path class="cls-44" d="M121.17,387c-4.08-2.36-7.79-2.68-10.55-1.3,2.57-.72,5.76-.18,9.22,1.81,8.52,4.92,15.43,16.84,15.43,26.61,0,5.09-1.88,8.6-4.88,10.1,3.77-1.06,6.21-4.81,6.21-10.61C136.6,403.79,129.69,391.87,121.17,387Z"/><path class="cls-45" d="M120.94,391.65c-6.56-3.79-11.88-.76-11.88,6.77s5.32,16.71,11.88,20.5,11.88.75,11.88-6.78S127.5,395.44,120.94,391.65Zm4.54,15,3.69-.31c.55-.05,1.26.68,1.43,1.49a15.63,15.63,0,0,1,.35,3.22,10.56,10.56,0,0,1-.35,2.82c-.17.61-.88.52-1.43-.17l-3.69-4.57a2.07,2.07,0,0,1-.5-1.31v-.44C125,407,125.16,406.69,125.48,406.66Zm2.35-3.73-3.68.32a1.29,1.29,0,0,1-1-.61l-.33-.4a2.18,2.18,0,0,1-.53-1.33V396c0-.74.61-.92,1.24-.38a23,23,0,0,1,4.54,5.64C128.49,402.08,128.38,402.88,127.83,402.93Zm-8.22-8.43v4.87c0,.43-.2.71-.53.72a1.66,1.66,0,0,0-.32,0,1.24,1.24,0,0,1-1-.57L114.05,395c-.55-.69-.66-1.62-.21-1.88a5.79,5.79,0,0,1,4.54-.4A2.05,2.05,0,0,1,119.61,394.5Zm-6.89,2.35,3.68,4.57a2.07,2.07,0,0,1,.5,1.31v.44c0,.43-.18.71-.5.73l-3.68.32c-.55,0-1.27-.69-1.43-1.49a15.82,15.82,0,0,1-.36-3.23,10.52,10.52,0,0,1,.36-2.81C111.45,396.08,112.17,396.17,112.72,396.85Zm1.33,10.78,3.69-.31a1.31,1.31,0,0,1,1,.6c.1.14.21.28.32.41a2.16,2.16,0,0,1,.53,1.32v4.87c0,.74-.61.93-1.23.38a22.46,22.46,0,0,1-4.54-5.63C113.39,408.49,113.5,407.68,114.05,407.63Zm8.22,8.43v-4.87c0-.42.2-.71.53-.72l.33,0a1.26,1.26,0,0,1,1,.57l3.68,4.57c.55.68.66,1.62.22,1.88a5.84,5.84,0,0,1-4.54.39A2,2,0,0,1,122.27,416.06Z"/><path class="cls-46" d="M120.2,392c-6.56-3.79-11.88-.76-11.88,6.77s5.32,16.7,11.88,20.49,11.88.76,11.88-6.77S126.76,395.73,120.2,392Zm4.54,15,3.68-.32c.56-.05,1.27.69,1.44,1.49a15.8,15.8,0,0,1,.35,3.23,10.54,10.54,0,0,1-.35,2.81c-.17.61-.88.52-1.44-.16l-3.68-4.57a2.07,2.07,0,0,1-.5-1.31v-.44C124.22,407.26,124.42,407,124.74,407Zm2.35-3.73-3.68.31a1.28,1.28,0,0,1-1-.6l-.33-.41a2.16,2.16,0,0,1-.53-1.32v-4.87c0-.74.61-.93,1.24-.38a22.64,22.64,0,0,1,4.53,5.63C127.75,402.37,127.64,403.18,127.09,403.23Zm-8.22-8.43v4.87c0,.42-.2.71-.53.72a1.66,1.66,0,0,0-.32,0,1.28,1.28,0,0,1-1-.58l-3.69-4.57c-.55-.68-.66-1.62-.21-1.88a5.83,5.83,0,0,1,4.54-.39A2.05,2.05,0,0,1,118.87,394.8ZM112,397.15l3.68,4.57a2.07,2.07,0,0,1,.5,1.31v.44c0,.43-.18.7-.5.73l-3.68.31c-.55.05-1.27-.68-1.43-1.49a15.65,15.65,0,0,1-.36-3.22,10.6,10.6,0,0,1,.36-2.82C110.71,396.37,111.43,396.46,112,397.15Zm1.33,10.78,3.69-.32a1.32,1.32,0,0,1,1,.61c.1.14.21.27.32.41a2.16,2.16,0,0,1,.53,1.32v4.87c0,.74-.61.93-1.23.38a22.51,22.51,0,0,1-4.54-5.64C112.65,408.78,112.76,408,113.31,407.93Zm8.22,8.43v-4.87c0-.43.2-.71.53-.72l.33,0a1.26,1.26,0,0,1,1,.57l3.68,4.57c.55.69.66,1.62.21,1.88a5.77,5.77,0,0,1-4.53.4A2,2,0,0,1,121.53,416.36Z"/><path class="cls-47" d="M291.15,492.78c0,4.77-1.64,8.16-4.32,9.79l-8.55,4.95c-2.79,1.56-1-2-5.24-4.42-8.52-4.92-15.43-16.83-15.43-26.61,0-4.84-4.46-4.87-1.73-6.49l9.08-5c2.78-1.51,6.58-1.23,10.77,1.19C284.25,471.09,291.15,483,291.15,492.78Z"/><path class="cls-48" d="M282.22,497.85c0,9.78-6.91,13.71-15.43,8.8S251.37,489.81,251.37,480s6.9-13.72,15.42-8.8S282.22,488.07,282.22,497.85Z"/><path class="cls-49" d="M267.53,470.87c-4.08-2.36-7.79-2.68-10.55-1.3,2.57-.72,5.76-.18,9.22,1.82,8.52,4.92,15.43,16.83,15.43,26.61,0,5.09-1.88,8.59-4.87,10.09,3.76-1,6.2-4.8,6.2-10.61C283,487.7,276.05,475.79,267.53,470.87Z"/><path class="cls-50" d="M267.3,475.56c-6.56-3.79-11.88-.75-11.88,6.78s5.32,16.7,11.88,20.49,11.89.76,11.89-6.77S273.87,479.35,267.3,475.56Zm4.54,15,3.69-.31c.55-.05,1.26.69,1.43,1.49a15.78,15.78,0,0,1,.35,3.22,10.56,10.56,0,0,1-.35,2.82c-.17.61-.88.52-1.43-.16l-3.69-4.57a2.13,2.13,0,0,1-.5-1.31,2.42,2.42,0,0,0,0-.44C271.32,490.88,271.53,490.6,271.84,490.57Zm2.35-3.72-3.68.31a1.29,1.29,0,0,1-1-.6l-.33-.41a2.17,2.17,0,0,1-.52-1.33V480c0-.74.61-.92,1.23-.37a22.68,22.68,0,0,1,4.54,5.63C274.86,486,274.75,486.8,274.19,486.85ZM266,478.42v4.87c0,.42-.19.71-.52.71l-.33,0a1.25,1.25,0,0,1-1-.57l-3.68-4.57c-.56-.68-.67-1.62-.22-1.88a5.84,5.84,0,0,1,4.54-.39A2.05,2.05,0,0,1,266,478.42Zm-6.89,2.34,3.69,4.57a2.24,2.24,0,0,1,.5,1.31,1.7,1.7,0,0,0,0,.22,1.77,1.77,0,0,0,0,.23c0,.43-.19.7-.5.73l-3.69.31c-.55.05-1.26-.69-1.43-1.49a15.7,15.7,0,0,1-.35-3.22,10.56,10.56,0,0,1,.35-2.82C257.82,480,258.53,480.08,259.08,480.76Zm1.34,10.79,3.68-.32a1.31,1.31,0,0,1,1,.61c.11.14.21.27.33.4a2.17,2.17,0,0,1,.52,1.33v4.87c0,.74-.61.92-1.23.37a22.5,22.5,0,0,1-4.54-5.63C259.75,492.4,259.86,491.59,260.42,491.55Zm8.22,8.43v-4.87c0-.43.19-.72.52-.72l.33,0a1.25,1.25,0,0,1,1,.57l3.68,4.57c.56.69.67,1.62.22,1.88a5.84,5.84,0,0,1-4.54.4A2.05,2.05,0,0,1,268.64,500Z"/><path class="cls-51" d="M266.56,475.86c-6.56-3.79-11.88-.76-11.88,6.77s5.32,16.71,11.88,20.5,11.89.75,11.89-6.78S273.13,479.65,266.56,475.86Zm4.54,15,3.69-.31c.55-.05,1.26.69,1.43,1.49a15.7,15.7,0,0,1,.35,3.22,10.56,10.56,0,0,1-.35,2.82c-.17.61-.88.52-1.43-.17l-3.69-4.57a2.07,2.07,0,0,1-.5-1.31,1.48,1.48,0,0,0,0-.21,1.77,1.77,0,0,0,0-.23C270.58,491.17,270.78,490.9,271.1,490.87Zm2.35-3.73-3.68.32a1.31,1.31,0,0,1-1-.61l-.33-.4a2.17,2.17,0,0,1-.52-1.33v-4.87c0-.74.61-.92,1.23-.38a22.73,22.73,0,0,1,4.54,5.64C274.12,486.29,274,487.1,273.45,487.14Zm-8.22-8.43v4.87c0,.43-.19.71-.52.72a1.69,1.69,0,0,0-.33,0,1.25,1.25,0,0,1-1-.57l-3.68-4.57c-.56-.69-.67-1.62-.22-1.88a5.79,5.79,0,0,1,4.54-.4A2.05,2.05,0,0,1,265.23,478.71Zm-6.89,2.35,3.69,4.57a2.19,2.19,0,0,1,.5,1.31,1.55,1.55,0,0,0,0,.22,1.62,1.62,0,0,0,0,.22c0,.43-.19.71-.5.74l-3.69.31c-.55.05-1.26-.69-1.43-1.49a15.8,15.8,0,0,1-.35-3.23,10.54,10.54,0,0,1,.35-2.81C257.08,480.29,257.79,480.38,258.34,481.06Zm1.34,10.78,3.68-.31a1.29,1.29,0,0,1,1,.6,4.23,4.23,0,0,0,.33.41,2.16,2.16,0,0,1,.52,1.32v4.88c0,.73-.61.92-1.23.37a22.68,22.68,0,0,1-4.54-5.63C259,492.7,259.12,491.89,259.68,491.84Zm8.22,8.43V495.4c0-.42.19-.71.52-.72l.33,0a1.25,1.25,0,0,1,1,.57l3.68,4.57c.56.68.67,1.62.22,1.88a5.84,5.84,0,0,1-4.54.39A2.05,2.05,0,0,1,267.9,500.27Z"/><path class="cls-52" d="M366.93,443.32l-59.47-92a10,10,0,0,0-3.39-3.21L145.5,256.84a10,10,0,0,0-9.78-.11L91,281.22a10,10,0,0,0-4.5,5.11L72.84,315.41a10.3,10.3,0,0,0-.69,3.46l-1,53.63a10,10,0,0,0,5.06,8.88l28,15.86a26.63,26.63,0,0,1-.4-4.48c0-11.07,7.82-15.52,17.46-10s17.46,19.05,17.46,30.12a20.17,20.17,0,0,1-.33,3.69l110.27,62.2c-.07-.75-.11-1.5-.11-2.24,0-11.06,7.82-15.52,17.46-9.95s17.46,19.05,17.46,30.11c0,.61,0,1.2-.08,1.77l6.54,3.7a10,10,0,0,0,9.34.26L363,471a10,10,0,0,0,5.56-9V448.76A10,10,0,0,0,366.93,443.32Z"/><path class="cls-53" d="M294.8,475l-8.71-26.66-36-68.19a15.45,15.45,0,0,0-6.23-6.65L88,283.81a9.84,9.84,0,0,0-1.45,2.52L72.84,315.41a10.3,10.3,0,0,0-.69,3.46l-1,53.63a10,10,0,0,0,5.06,8.88l28,15.86a26.63,26.63,0,0,1-.4-4.48c0-11.07,7.82-15.52,17.46-10s17.46,19.05,17.46,30.12a20.17,20.17,0,0,1-.33,3.69l110.27,62.2c-.07-.75-.11-1.5-.11-2.24,0-11.06,7.82-15.52,17.46-9.95s17.46,19.05,17.46,30.11c0,.61,0,1.2-.08,1.77l6.54,3.7a10,10,0,0,0,6.67,1.13V482.48A16.73,16.73,0,0,0,294.8,475Z"/><path class="cls-54" d="M296.79,474.81l-8.71-26.66-36-68.19a15.47,15.47,0,0,0-6.23-6.66L89.94,283.59c-.53.68.34,1.12,0,1.92l154.39,88.82a15.48,15.48,0,0,1,6.22,6.65l36,68.2,8.71,26.66a16.71,16.71,0,0,1,1.75,7.44v19.61c1,.1.62.38,1.57.21V482.25A16.58,16.58,0,0,0,296.79,474.81Z"/><path class="cls-55" d="M274,405.93l15.19-5.51A108.15,108.15,0,0,0,317,385.49l4-3a3.86,3.86,0,0,1,5.52,1L347.43,415a3.86,3.86,0,0,1-1.06,5.34l-10.68,7.15a121.12,121.12,0,0,1-26.54,13.4l-16.72,6a3.87,3.87,0,0,1-4.8-2L271.86,411.2A3.85,3.85,0,0,1,274,405.93Z"/><path class="cls-56" d="M276.2,406.73l14.48-5.24a102.91,102.91,0,0,0,26.41-14.23l3.84-2.85a3.67,3.67,0,0,1,5.25.91l19.95,30a3.67,3.67,0,0,1-1,5.09L335,427.26A115.3,115.3,0,0,1,309.65,440l-15.93,5.71a3.67,3.67,0,0,1-4.57-1.9l-15-32.08A3.68,3.68,0,0,1,276.2,406.73Z"/><path class="cls-55" d="M240.62,397.23l.88,29.59a2.15,2.15,0,0,0,1.08,1.79L278.12,449v-5L260,404.12l-16.19-8.83A2.14,2.14,0,0,0,240.62,397.23Z"/><polygon class="cls-57" points="242.51 396.45 243.41 426.42 269.24 441.37 268.54 426.54 259.42 405.67 242.51 396.45"/><path class="cls-58" d="M281.74,486.15l13,7a18.78,18.78,0,0,0,15.12.51l9.9-4c15.41-6.17,29.67-15.76,43.11-24.46l6.25-5,2,.14-.29,13.27-2,2a183.46,183.46,0,0,1-59,31.34h0a18.84,18.84,0,0,1-14.68-1.45l-12.54-7.36Z"/><path class="cls-59" d="M293.79,480h0a11.75,11.75,0,0,0,11.17.6h0a5.53,5.53,0,0,1,7.66,3.44l1.76,5.9-9.09,3.59a11.75,11.75,0,0,1-9.37-.31l-2.54-1.2Z"/><path class="cls-60" d="M293.79,480h0a11.75,11.75,0,0,0,11.17.6h0a5.53,5.53,0,0,1,7.66,3.44l1.76,5.9-10.51-.49C293.58,487.3,293.79,480,293.79,480Z"/><path class="cls-61" d="M362.45,456.25l-.8,8.61s7.37-4.57,7.82-6.34-.29-12.63-.29-12.63l-2.13,2.58h0A10.61,10.61,0,0,0,362.45,456.25Z"/><path class="cls-62" d="M362.45,456.25l-.8,8.61s4.72-8,5.16-9.77,2.37-9.2,2.37-9.2l-2.13,2.58h0A10.61,10.61,0,0,0,362.45,456.25Z"/><path class="cls-55" d="M347.43,415l-2.1-3.17a4.29,4.29,0,0,1-1.87,3l-12,8.05a136.43,136.43,0,0,1-29.85,15.06l-14.75,5.28.77,1.65a3.87,3.87,0,0,0,4.8,2l16.72-6a121.12,121.12,0,0,0,26.54-13.4l10.68-7.15A3.86,3.86,0,0,0,347.43,415Z"/><path class="cls-63" d="M342.13,409.34l-15.95-24a3.67,3.67,0,0,0-5.25-.91l-3.84,2.85a102.91,102.91,0,0,1-26.41,14.23l-14.48,5.24a3.66,3.66,0,0,0-2.24,4.55,121.65,121.65,0,0,0,31,3.77C319.16,415.05,332.17,412.89,342.13,409.34Z"/><polygon class="cls-64" points="253.64 374.34 299.88 348.01 141.45 257.51 95.2 283.4 253.64 374.34"/><path class="cls-65" d="M273.88,446c2.47,1.51-12.66,8.22-18.59,9.44s-.92,2.72-1.1,1.73C253.34,452.5,265.57,440.89,273.88,446Z"/><path class="cls-66" d="M256.11,437.77l1,11.74a2.62,2.62,0,0,0,3.66,2.18l12.76-3.84a2.63,2.63,0,0,0,1.55-2.79l-4.2-11a2.63,2.63,0,0,0-3.42-2.12l-9.54,3.09A2.61,2.61,0,0,0,256.11,437.77Z"/><path class="cls-67" d="M259.57,450.93l-1-11.74a2.61,2.61,0,0,1,1.8-2.72l9.55-3.09a2.19,2.19,0,0,1,.66-.12,2.62,2.62,0,0,0-3.14-1.3l-9.54,3.09a2.61,2.61,0,0,0-1.8,2.72l1,11.74a2.61,2.61,0,0,0,2.76,2.38A2.56,2.56,0,0,1,259.57,450.93Z"/><path class="cls-68" d="M254.48,464.94l-121.1-69.43c3.26,5.52,5.3,11.78,5.3,17.41a20.17,20.17,0,0,1-.33,3.69l110.27,62.2c-.07-.75-.11-1.5-.11-2.24C248.51,470.56,250.82,466.5,254.48,464.94Z"/><path class="cls-69" d="M103.76,392.76c0-5.6,2-9.51,5.24-11.28L71.37,359.83l-.25,12.67a10,10,0,0,0,5.06,8.88l28,15.86A26.63,26.63,0,0,1,103.76,392.76Z"/><path class="cls-70" d="M282.07,487.47l13,7a18.84,18.84,0,0,0,15.13.51l9.89-4a183.88,183.88,0,0,0,43.11-24.46l8-6.44V472a6.05,6.05,0,0,1-2.27,4.71l-1.05.84c-18.64,12.28-35.9,22.51-57.68,30.65h0a18.8,18.8,0,0,1-14.68-1.44L283,499.42Z"/><path class="cls-71" d="M311,484.3,307.84,491s-9.58-5.92-8.63-8S311,484.3,311,484.3Z"/><path class="cls-72" d="M306.81,489c0,1.68,1.19,2.35,2.65,1.51a5.85,5.85,0,0,0,2.65-4.57c0-1.68-1.19-2.35-2.65-1.51A5.85,5.85,0,0,0,306.81,489Z"/><path class="cls-73" d="M304.46,485.62l-2.5,5.3s-7.62-4.71-6.86-6.34S304.46,485.62,304.46,485.62Z"/><path class="cls-74" d="M301.15,489.38c0,1.33.94,1.87,2.1,1.2a4.63,4.63,0,0,0,2.11-3.63c0-1.34-.94-1.87-2.11-1.2A4.64,4.64,0,0,0,301.15,489.38Z"/><path class="cls-75" d="M367.74,455.14l-2.15,4.55s-3.67-2.79-3-4.19S367.74,455.14,367.74,455.14Z"/><path class="cls-76" d="M364.89,458.37c0,1.15.81,1.61,1.81,1a4,4,0,0,0,1.8-3.12c0-1.14-.8-1.6-1.8-1A4,4,0,0,0,364.89,458.37Z"/><path class="cls-77" d="M368.61,451.39,367,454.71s-2.67-2-2.2-3S368.61,451.39,368.61,451.39Z"/><path class="cls-78" d="M366.53,453.75c0,.83.59,1.17,1.32.75a2.91,2.91,0,0,0,1.32-2.28c0-.83-.59-1.17-1.32-.75A2.91,2.91,0,0,0,366.53,453.75Z"/><path class="cls-79" d="M299.94,481.7a11.75,11.75,0,0,1-6.15-1.71l-.41,12,2.54,1.2a11.72,11.72,0,0,0,5.22,1.12Z"/><path class="cls-55" d="M315.61,478.46l1.28,3.41a4.94,4.94,0,0,0,6.82,2.7c4.72-2.34,12-6.06,18.1-9.67,6.78-4,12.36-7.68,15.21-9.58a4.93,4.93,0,0,0,2.19-3.82l.36-6.27a1.39,1.39,0,0,0-2.16-1.24c-4,2.64-12.35,8.11-19.48,12.17-7.95,4.52-18.12,9-21.58,10.54A1.38,1.38,0,0,0,315.61,478.46Z"/><path class="cls-80" d="M358.31,453.77a1.34,1.34,0,0,1,.15.72l-.36,6.27a4.92,4.92,0,0,1-2.19,3.83c-2.84,1.9-8.42,5.54-15.21,9.57-6.09,3.61-13.38,7.34-18.1,9.67a4.92,4.92,0,0,1-4.35,0,4.94,4.94,0,0,0,5.46.73c4.72-2.34,12-6.06,18.1-9.67,6.78-4,12.36-7.68,15.21-9.58a4.93,4.93,0,0,0,2.19-3.82l.36-6.27A1.39,1.39,0,0,0,358.31,453.77Z"/><path class="cls-81" d="M351.12,422.44s12.11,17.72,11.22,21.56-19.76,15.66-29.79,20.24-28.32,12.89-32.6,9.94-8-24.33-8-24.33a241.27,241.27,0,0,0,34.85-12.52C344.24,429.36,351.12,422.44,351.12,422.44Z"/><path class="cls-55" d="M346,426.82l-.1-.17a1.38,1.38,0,0,0-2.1-.18,3.92,3.92,0,0,1-.32.25l-7.63,5.11a86.49,86.49,0,0,1-19,9.58l-8.29,3a1,1,0,0,0-.6,1.44h0a2.46,2.46,0,0,0,3.05,1.27l10.63-3.81a77.31,77.31,0,0,0,16.88-8.52l6.79-4.55A2.45,2.45,0,0,0,346,426.82Z"/><polygon class="cls-82" points="72.27 336.02 275.41 450.64 281.59 466.07 72.13 348.41 72.27 336.02"/><path class="cls-83" d="M70.12,361l7.14,3.74v18h0A12.52,12.52,0,0,1,69.85,371Z"/><polygon class="cls-84" points="247.26 466.19 139.62 404.44 140.28 403.28 247.92 465.04 247.26 466.19"/><polygon class="cls-85" points="257 394.74 83.52 294.95 82.86 296.1 196.26 361.33 196.26 434.93 197.59 434.93 197.59 362.1 236.53 384.5 236.53 458.38 237.86 458.38 237.86 385.26 256.34 395.89 257 394.74"/><path class="cls-86" d="M249.8,441.21c0,2.22-1.56,3.11-3.5,2a7.73,7.73,0,0,1-3.5-6c0-2.22,1.57-3.11,3.5-2A7.7,7.7,0,0,1,249.8,441.21Z"/><path class="cls-87" d="M249.75,441.06c.76,1.55-.62,1.79-3.1.55s-5.1-3.5-5.86-5.05.62-1.79,3.1-.55S249,439.51,249.75,441.06Z"/><path class="cls-88" d="M232.54,431.91c0,2.21-1.57,3.11-3.5,2a7.71,7.71,0,0,1-3.5-6c0-2.21,1.57-3.11,3.5-2A7.71,7.71,0,0,1,232.54,431.91Z"/><path class="cls-89" d="M232.49,431.75c.76,1.55-.63,1.8-3.1.55s-5.1-3.5-5.86-5,.62-1.8,3.1-.56S231.73,430.21,232.49,431.75Z"/><path class="cls-84" d="M231.15,422h0a3.14,3.14,0,0,1-1.49-.38l-24.88-13.36a6.93,6.93,0,0,1-3.66-6.12v-25.2a3.16,3.16,0,0,1,3.16-3.16,3.22,3.22,0,0,1,1.59.43l25,14.58a7,7,0,0,1,3.45,6v24.05a3.1,3.1,0,0,1-1,2.27A3.19,3.19,0,0,1,231.15,422Zm-26.87-46.9a1.84,1.84,0,0,0-1.83,1.84v25.2a5.6,5.6,0,0,0,3,4.95l24.88,13.36a1.85,1.85,0,0,0,2.14-.29,1.8,1.8,0,0,0,.55-1.32V394.77a5.63,5.63,0,0,0-2.79-4.85l-25-14.58A1.81,1.81,0,0,0,204.28,375.08Z"/><path class="cls-90" d="M231.45,423h0a3.14,3.14,0,0,1-1.5-.37l-24.88-13.37a6.94,6.94,0,0,1-3.66-6.12V378a3.16,3.16,0,0,1,4.75-2.73l25,14.58a7,7,0,0,1,3.44,6v24a3.14,3.14,0,0,1-1,2.28A3.22,3.22,0,0,1,231.45,423Zm-26.88-46.89a1.83,1.83,0,0,0-1.83,1.83v25.2a5.61,5.61,0,0,0,3,5l24.88,13.37a1.86,1.86,0,0,0,2.14-.3,1.81,1.81,0,0,0,.56-1.32v-24a5.63,5.63,0,0,0-2.79-4.86l-25-14.58A1.77,1.77,0,0,0,204.57,376.12Z"/><path class="cls-91" d="M98.42,328.24q0,4.54-2.25,5.65c-1.51.75-3.67.3-6.51-1.34l-4.54-2.62V311.54l5,2.91a16.68,16.68,0,0,1,6.1,5.89A15.22,15.22,0,0,1,98.42,328.24Zm-3.53-1.94q0-5.93-4.56-8.55l-1.81-1.05v12l1.46.85Q94.89,332.36,94.89,326.3Z"/><path class="cls-92" d="M111,344.85l-9.23-5.32V321.14l9.23,5.33v3.19l-5.83-3.37v4l5.42,3.13v3.2l-5.42-3.13v4.74l5.83,3.36Z"/><path class="cls-93" d="M114.31,346.78V328.4l3.4,2v15.17l6.5,3.75v3.22Z"/><path class="cls-94" d="M127,354.11V335.72l3.4,2v18.39Z"/><path class="cls-95" d="M143.56,345.29l3.44,2-5.45,15.24-3.71-2.14-5.43-21.53,3.43,2,3,12.68c.17.74.34,1.59.52,2.56s.29,1.62.34,2a25,25,0,0,1,.82-3.57Z"/><path class="cls-96" d="M158.24,372.15,149,366.82V348.43l9.23,5.33V357l-5.83-3.36v4l5.43,3.13V364l-5.43-3.13v4.74l5.83,3.37Z"/><path class="cls-97" d="M165,369V376l-3.4-2V355.69l4.67,2.7a14.61,14.61,0,0,1,4.84,4.15,8.73,8.73,0,0,1,1.57,5,3.42,3.42,0,0,1-.78,2.44,2.64,2.64,0,0,1-2.21.71q3.62,8.28,4.72,10.73l-3.77-2.18L166.79,370Zm0-3.17,1.1.64a3.77,3.77,0,0,0,2.38.75c.51-.11.76-.61.76-1.49a3.66,3.66,0,0,0-.78-2.31,8.21,8.21,0,0,0-2.43-2l-1-.59Z"/><path class="cls-98" d="M181.39,374.7l3.34-5.64,3.66,2.11-5.31,8.16v7.16l-3.38-1.95v-7l-5.31-14.43,3.68,2.13Z"/><polygon class="cls-99" points="84.8 334.81 84.8 338.35 91.51 342.33 91.51 338.72 84.8 334.81"/><polygon class="cls-100" points="95.08 340.62 95.08 344.16 101.79 348.14 101.79 344.53 95.08 340.62"/><polygon class="cls-101" points="105.36 346.43 105.36 349.97 112.07 353.95 112.07 350.34 105.36 346.43"/><polygon class="cls-102" points="115.63 352.24 115.63 355.78 122.34 359.76 122.34 356.15 115.63 352.24"/><polygon class="cls-103" points="125.91 358.05 125.91 361.59 132.62 365.57 132.62 361.96 125.91 358.05"/><polygon class="cls-104" points="136.19 363.86 136.19 367.4 142.9 371.38 142.9 367.77 136.19 363.86"/><polygon class="cls-105" points="146.46 369.67 146.46 373.21 153.18 377.19 153.18 373.58 146.46 369.67"/><polygon class="cls-106" points="156.74 375.48 156.74 379.02 163.45 383 163.45 379.39 156.74 375.48"/><polygon class="cls-107" points="167.02 381.29 167.02 384.83 173.73 388.81 173.73 385.2 167.02 381.29"/><polygon class="cls-108" points="177.29 387.1 177.29 390.64 184.01 394.63 184.01 391.01 177.29 387.1"/><path class="cls-109" d="M461.29,111.79c-8.63-5-16.35-5.13-21.7-1.4l-6.19,2.89.76,4a28,28,0,0,0-2.08,11.18c0,12.68,6.77,32.68,13.8,50l7.33,38.25,8.08-4s29.2-24.18,29.2-50.5C490.49,143.66,477.42,121.1,461.29,111.79Z"/><path class="cls-110" d="M482.42,166.21c0,26.32-29.21,50.5-29.21,50.5S424,158.8,424,132.48c0-18.51,13.07-26,29.21-16.65S482.42,147.7,482.42,166.21Z"/><path class="cls-111" d="M455.06,114.82c-8.43-4.87-16-5.12-21.33-1.65,5.17-2.34,12-1.67,19.48,2.66,16.13,9.31,29.21,31.87,29.21,50.38,0,22.55-21.44,43.52-27.58,49.06l.22.43s29.21-24.18,29.21-50.5C484.27,146.69,471.19,124.13,455.06,114.82Z"/><ellipse class="cls-112" cx="453.21" cy="149.34" rx="8.66" ry="14.99" transform="translate(-13.42 249.14) rotate(-30.31)"/><path class="cls-84" d="M456.49,160c-5.87-3.39-10.64-11.6-10.64-18.34a8.26,8.26,0,0,1,2-6c-3.17.28-5.31,3-5.31,7.49,0,6.73,4.76,14.95,10.64,18.34,3.54,2,6.68,1.85,8.61-.09A9.12,9.12,0,0,1,456.49,160Z"/><g class="cls-113"><path class="cls-114" d="M582.7,291.12l-19.08-15.57v49.78S588.18,295.59,582.7,291.12Z"/></g><ellipse class="cls-115" cx="468.71" cy="145.32" rx="34.35" ry="42.88" transform="translate(-15.02 227.83) rotate(-26.91)"/></g><g id="Layer_2-2" data-name="Layer 2"><path class="cls-116" d="M201.12,38.09c13.87-3,68.31-13.17,124.43,10.85,37,15.86,57.16,39.08,65.82,50.65"/><polyline class="cls-116" points="399.16 63.64 392.89 100.08 357 105.19"/><text class="cls-117" transform="translate(8.67 112.79) rotate(-18.49)">WE ARE HERE</text><text class="cls-118" transform="translate(8.67 153.02) rotate(-18.49)">SEE YOU SOON!</text></g></g></g></svg>