<?xml version="1.0" encoding="utf-8"?>
<!-- Generator: Adobe Illustrator 23.0.0, SVG Export Plug-In . SVG Version: 6.00 Build 0)  -->
<svg version="1.1" id="Layer_1" xmlns="http://www.w3.org/2000/svg" xmlns:xlink="http://www.w3.org/1999/xlink" x="0px" y="0px"
	 viewBox="0 0 1864.6 1295.8" style="enable-background:new 0 0 1864.6 1295.8;" xml:space="preserve">
<style type="text/css">
	.st0{fill:#EDF4FF;}
	.st1{fill:#EA7708;}
	.st2{fill:#FAA95D;}
	.st3{fill:#B3431D;}
	.st4{fill:#40264F;}
	.st5{fill:#78759E;}
	.st6{fill:#A7A4BC;}
	.st7{fill:#F48C7F;}
	.st8{fill:#F7A491;}
	.st9{fill:#FFFBF0;}
	.st10{fill:#F9F3DC;}
	.st11{fill:#2B0658;}
	.st12{fill:#8849E5;}
	.st13{fill:#F47458;}
	.st14{fill:#725EEF;}
	.st15{fill:#1D0DF9;}
	.st16{fill:#AB9AF4;}
	.st17{fill:#5802D1;}
	.st18{font-family:'BerlinSansFB-Bold';}
	.st19{font-size:194.61px;}
	.st20{fill:#FFFFFF;}
	.st21{fill:none;stroke:#2B0658;stroke-width:2;stroke-miterlimit:10;}
</style>
<title>Asset 1</title>
<g>
	<g id="Layer_1-2">
		<path class="st0" d="M1265.9,505.8c-80.9,45.6-158.4-13.6-249.8-100.3c-9.9-8.5-19.4-17.5-28.2-27.1c-19.6-19-39.8-38.8-60.9-58.8
			c-232.1-202.9-624.4-329.9-824.1,76c-187,380.3-69.4,760.7-31.7,862.1c6.5,16.9,10.4,26.2,10.4,26.2l1730.5,0.7
			C1898.3,342.4,1489.5,379.7,1265.9,505.8z"/>
		<path d="M0,1291.7c0-2.3,2.5-4.1,5.6-4.1h1852.3c3.7,0,6.7,1.9,6.7,4.1s-3,4.2-6.7,4.2H5.6C2.5,1295.8,0,1294,0,1291.7z"/>
		<path class="st1" d="M1035,1288.3c0.8-4.9,4.6-8.6,9.2-8.6h167.2c4.6,0,8.3,3.7,9.2,8.6H1035z"/>
		<path class="st2" d="M1161,1279.8l51.1-0.1c0,0-10-20.7-28-30.7s-49-9.8-49-9.8L1161,1279.8z"/>
		<path class="st3" d="M1124.7,1280c0,0-3.5-39.6,9.8-40.8s26.5,40.7,26.5,40.7L1124.7,1280z"/>
		<path class="st2" d="M919.3,1288.2c0.6-20.3,18.2-36.6,39.8-36.6s39.2,16.3,39.8,36.6H919.3z"/>
		<path class="st1" d="M913.4,1288.3c0.4-4.9,2.3-8.6,4.5-8.6h82.3c2.3,0,4.1,3.7,4.5,8.6H913.4z"/>
		<polygon class="st4" points="1556.5,1288.4 1589.9,1288.4 1598.9,1200.2 1547.5,1200.2 		"/>
		<polygon class="st4" points="255.9,1288.4 289.3,1288.4 298.3,1200.2 246.9,1200.2 		"/>
		<path class="st4" d="M932.3,914.9H215.6l0,0v-204c0-55,44.6-99.6,99.6-99.6h517.5c55,0,99.6,44.6,99.6,99.6V914.9L932.3,914.9z"/>
		<path class="st5" d="M1620.4,978.8H284.9l0,0V726.5c0-63.8,51.7-115.5,115.5-115.5h1104.5c63.8,0,115.5,51.7,115.5,115.5V978.8
			L1620.4,978.8z"/>
		<polygon class="st5" points="215.9,959.4 1664,959.4 1664.1,1213.5 215.9,1213.5 		"/>
		<path class="st6" d="M1711.8,1113.9h-88.7c-28.6,0-51.7-23.2-51.7-51.7V777.9c0-28.6,23.2-51.7,51.7-51.7h88.7
			c28.6,0,51.7,23.2,51.7,51.7v284.3C1763.5,1090.8,1740.4,1113.9,1711.8,1113.9z"/>
		<path class="st6" d="M269.5,1112.8h-88.9c-28.5,0-51.7-23.1-51.7-51.7V777.8c0-28.5,23.1-51.7,51.7-51.7h88.9
			c28.5,0,51.7,23.1,51.7,51.7v283.4C321.2,1089.7,298.1,1112.8,269.5,1112.8z"/>
		<path class="st6" d="M1659.6,1112.8H218.7c-29.6,0-53.5-24-53.5-53.5l0,0v-52c0-29.6,24-53.5,53.5-53.5l0,0h1440.9
			c29.5,0,53.5,24,53.5,53.5v52C1713.1,1088.8,1689.2,1112.8,1659.6,1112.8C1659.6,1112.8,1659.6,1112.8,1659.6,1112.8z"/>
		<path class="st7" d="M1130.3,547c7.8-6.8,7.3,12.2,10.9,13.9c6.3,3,3.7,14.6,7,17.9s20.3,23.3,20.3,23.3
			c7.5,2.2,49.9,152.7,56.1,155.3s72.9-7.5,72.9-7.5l15.9,57.9c0,0-122.8,22.5-132.6,8.4c-6.3-9.3-21.8-95.5-31.8-158.2
			c-3-14.7-6.9-28.8-11.4-33.5c-10.6-10.9-15.7-20.2-17.4-29.5C1119,588.5,1120.7,555.3,1130.3,547z"/>
		<path class="st8" d="M838,844.3l-10.1,61c0,0,10.1,43.7,5.1,46.4S666.3,953,666.3,953s-30.3-14.6-8.8-19.9s106.5-25.6,112.4-36.2
			s12.6-67.2,12.6-67.2L838,844.3z"/>
		<path class="st8" d="M812.8,1180.4l-10.6,61c0,0,10.7,43.5,5.4,46.1s-178.2,0.3-178.2,0.3s-28.7-13.3-6.2-18.6
			s111.8-25.6,118-36.2s13.3-67.2,13.3-67.2L812.8,1180.4z"/>
		<path class="st9" d="M1422.6,786l69.6-117.3c0,0,164.5-5.7,167,10.9c2.9,19.1-33.8,62.1-56.7,127.3
			c-20.1,57.2-29.2,117.3-33.8,132.2c-9.9,31.8-152.1-81.5-152.1-81.5L1422.6,786z"/>
		<path class="st10" d="M1183.4,828.2c0,0-26-2.7-45.8-16.8c-76.7-54.3-233.6-205.2-277.1-185.2c-4.6,2.1-14,6.8-18.6,11.3
			c-50.2,49.4-91.5,230-91.5,230l78.2,37.1l50.4-163.1l148.7,158.1L1183.4,828.2z"/>
		<path class="st9" d="M1254.9,813.5l-116.6-2.8c0,0-295.6,44.9-331.3,63.8s-60.4,319.6-60.4,319.6l70.3,10.6l76.4-250.3l237.7,6.3
			L1254.9,813.5z"/>
		<path class="st11" d="M1456.6,693.4c0,0-53.3,0-89.7,9.3s-85.1,18.7-85.1,18.7l14,73.8c0,0,75.7-13.1,79.5-13.1
			S1456.6,693.4,1456.6,693.4z"/>
		<path class="st12" d="M1522,702c0,0,23.1,18.9,14.7,82s-45,130.5-118.6,160s-287.3,16.7-287.3,16.7l7.4-152.5
			c0,0,108.1,1.1,131.2-1c18.3-1.7,65.7-98.4,163.9-115.5C1459.3,687.1,1488.7,693.2,1522,702z"/>
		<path class="st4" d="M1510.8,655.8c0,0,16.3-13.5,28.1-18.8s32.5-25.1,39.7-54.5s-10.1-48.6-20.7-56.3s-54.7-24.4-72.2-22.8
			s-31.3,60.6-31.3,60.6l7,52.2L1510.8,655.8z"/>
		<path class="st8" d="M1457.4,644.9l-23.7,46.3c0,0-2.1,18,2.6,25.9c8.1,13.6,64-19.6,64-19.6l24.7-79.4L1457.4,644.9z"/>
		<path class="st13" d="M1517.8,641.4c-22.4,26.8-56.4,30.8-72.6,27.2l12.1-23.7l67.7-26.9L1517.8,641.4z"/>
		<path class="st8" d="M1530.6,532.5c-19-17.6-49.5-13.2-63.1,8.4c-7.1,11.3-13.5,23-19.1,35.1c-15.2,33-12.2,72.9,2.9,79.5
			s66.3,3.4,88.5-43.1C1553.5,583.8,1550.6,551,1530.6,532.5z"/>
		<path class="st8" d="M1527.1,611.4c-3.2,7.3-1,15.4,5,18s13.5-1.2,16.7-8.5s1-15.4-5-18S1530.3,604.1,1527.1,611.4z"/>
		<path class="st4" d="M1543.7,602.9c0,0,9.5-14.8,13.9-30.9s-0.1-42.7-14.7-52c-14.5-9.3-53.5-17.3-54.5-29.1s-1.3-10.8-2.3-13
			c-2.3-5-30,1.4-39,28.1c-9,26.6,14.5,34.6,18.7,37s51.8,0.8,64,6.4S1543.7,602.9,1543.7,602.9z"/>
		<polygon class="st7" points="1502.4,889.7 1421.8,966.8 1383.9,903 1450.5,837.8 		"/>
		<path class="st8" d="M1334.5,693c0,0,60.4,147.6,82.8,194.6s14.4,72.3,4.4,79.2c-7.7,5.3-48.4,9.8-75.7-42.8s-34.7-210-42.4-210
			s-22.9-23.9-23.8-25.9c-5.8-12.3,9.4-41.7,9.4-41.7s-33.5-39.9-28.7-46.3c2.3-3,54.4,41.9,60.4,55.3S1334.5,693,1334.5,693z"/>
		<path class="st11" d="M1416,867.1c0,0,29-174.7,106-165.1c14.9,1.9,23.1,11.9,26.7,26.8c15.1,62.5-59.4,202.8-59.4,202.8
			S1420.2,879.7,1416,867.1z"/>
		<path class="st4" d="M1160.6,591.4l-5.5-17.5c-2.4-0.5-4.4-0.3-5.6,0.8C1144.9,579.4,1157.6,590.1,1160.6,591.4z"/>
		<path class="st7" d="M1164.9,604.9c0.7,2.1-1.6,4.5-5,5.5l-1.1,0.3c1.2,7.2,13.6,11.6,13.6,11.6s12.8-30.9-0.4-40.4
			c0,0-10-6.5-17-7.9c-2.4-0.5-4.4-0.3-5.6,0.8c-4.6,4.6,8.1,15.4,11.1,16.7h0.1c0,0,0,0.1,0,0.3L1164.9,604.9z"/>
		<path class="st13" d="M1158,592.5l2.6-1c0,0,5.6,9.9,7.3,13.8s-12.3,8.4-16.2,7.3S1158,592.5,1158,592.5z"/>
		<path class="st4" d="M1119,523l27.6,87c0.7,2.1,4,3,7.3,2.1l6-1.7c3.4-0.9,5.6-3.4,5-5.5l-4.3-13.5c-3-1.3-15.7-12.1-11.1-16.7
			c1.2-1.2,3.2-1.3,5.6-0.8l-17.8-56c-0.7-2.1-3.9-3-7.3-2.1l-6,1.7C1120.6,518.5,1118.3,520.9,1119,523z"/>
		<path class="st7" d="M1119.7,556.7c0,0-5-7.6,0.3-11.6c2.8-2.1,32.9,2.5,34.3,5.8C1158.2,559.9,1131,556.1,1119.7,556.7z"/>
		<path class="st7" d="M1117.1,565.4c0,0-2.2-6.2,0.3-10.3c1.9-3,33.5,0.1,36.1,5.1C1158.1,569,1128.4,564.9,1117.1,565.4z"/>
		<path class="st7" d="M1117.4,565.3c0,0,30-0.7,33,4.1s-13.1,6.1-13.1,6.1l-15.7,25.2C1121.6,600.7,1111.6,570.3,1117.4,565.3z"/>
		<path class="st7" d="M1136.8,574.9c2,4.9,3.8,9.8,5.3,14.9c8,25.2,5,25.9,2.4,27.1s-19.1-13.2-21.6-13.8s-8.6-31.7-4.5-42.6
			s8.3-12.9,8.3-12.9L1136.8,574.9z"/>
		<path class="st12" d="M626.9,410.7c-4-24.5-8.3-49.1-31.9-67.8c-19.1-15.1-42.8-18.5-65.7-11.6c-65,19.5-24.8,56.9-110.8,98.3
			c-88.9,42.9-69.7,125.2-43.6,150.7c125.1,121.9,235.3-20.7,243.3-58.4C624.2,493.9,629.5,426.5,626.9,410.7z"/>
		<path class="st8" d="M366.3,762.2c-0.6,0.4,5.8,7.6,11.2,14.6s16.7,15.3,14.9,16.6c-1.4,1-8.9-3.4-14.9-8.5c1.1,1.9,1.4,3,0.1,3
			c-5.1-0.3-24.2-16.3-36.8-37.5S264.5,592,287.5,583.4c8.4-3.1,79.8-22.1,98.4-26.9l9,63.9h-64.1c4.7,39.8,19.3,87.8,20.1,90.3
			c2.2,6.8,13.4,10.5,15.4,11.9c11.3,7.9,25.8,18.3,25.4,23.8s-9.8-3.4-17.3-6s1,28.6,23.3,42.9s-8.8,6.1-14.4-0.9
			S367.3,761.7,366.3,762.2z"/>
		<path class="st8" d="M801.6,532.9c-1-1.1-1.7,0.4-2.3,3c-1.1-8.4-5-18-6.8-18.3c-2.2-0.4,1.9,13.5,0.7,22.3s-1.4,19.2-2.1,19
			c-1.1-0.3,0.7-12.2,1.8-21.2s-15-42.3-9.3-16.2c5.7,26.1-11,54-14.6,46.7s-3.9-20.3-8.2-16.7s0.7,21,1,34.9c0,1.6,1.6,6,3.6,11
			c1,2.6,0.3,5.6-1.9,7.5l-61.3,47.3l-34.5-54.3l-53.3,31.6c0,0,45.2,78.8,87.5,72.8c16.9-2.4,75.1-65.6,93.2-98.2
			C813,571.8,805.7,537.5,801.6,532.9z"/>
		<path class="st10" d="M616.4,531.8c17.5,8.3,70.2,88.5,70.2,88.5l-50.4,49.3l-33.2-43.4C603.1,626.3,594.9,521.6,616.4,531.8z"/>
		<path class="st10" d="M481.3,523.2c0,0-10.8,0.4-38.2,9.2c-30,9.7-86.3,23.7-86.3,23.7l30,66.8l100.4-11.9
			C487.3,610.9,497.1,523.2,481.3,523.2z"/>
		<path class="st9" d="M621.2,780.4c-27,14.3-124.3,12-124.3,12c-2.6-27-27.3-110.2-33.3-168.1c-7.5-40.3,9.5-40.8,17.8-101.1
			c0-0.4,41.8-3.3,41.8-3.3l43.5,1.1c0,0,37.8,3,49.8,10.9c0.8,0.5,5.6,68.6,1.9,116.8c-2.5,32.9-6.3,59.4-6,81.2
			C612.6,761.4,621.2,780.4,621.2,780.4z"/>
		<path class="st14" d="M494.9,779.5l-100.6,81.4c0,0,186.9,97.7,251.8,79.1l17.7-88.4l-42.6-71.3L494.9,779.5z"/>
		<path class="st15" d="M476.8,887c0,0-71.6-10.9-114.5,23.6s-70.7,103.6-48.8,114.5s85.9-1.7,136.4-20.2S518.1,897.1,476.8,887z"/>
		<path class="st7" d="M316.8,958.6c-6,12.9-0.7,25.2,9.2,32c12.3,8.4,181.3,33.1,239.2,41c45.1,6.1,112.9,20.5,131.4,23.9
			s83.8,4.6,85,2.5c3.5-5.6-4.2-16-17.7-19.4s-22.7-0.8-48.8-18.5s-36.2-3.4-42.9,0.8s-302.3-95.2-302.3-95.2
			S330.2,929.8,316.8,958.6z"/>
		<path class="st14" d="M481,795.2c0,0-130.8,61.3-158.4,79.1c-51.7,33.4-22.3,129.4-14.9,144.6c0,0,15-85.6,62.2-93.2l8.4-40.4
			L481,795.2z"/>
		<path class="st16" d="M612.4,811.2c0,0-184.4-49.7-253.4,14.3c0,0-32.4,29.7-20.6,65.1c6.7,20,31.5,35.1,31.5,35.1
			s64-54.7,90.1-45.5s127.4,80.7,156.6,77.5C662.1,952.7,715.1,848.3,612.4,811.2z"/>
		<path class="st8" d="M496.7,893.4c-19.6-9.9-66.2-31.7-97.3-22.4s-43.5,34.4-29.5,54.7c8.2,11.9,280.4,93.5,293,101
			s64.8,18.5,80.8,18.5s45.5,5.9,48,1.7s-11.8-18.5-29.5-21.9s-42.1-26.9-52.2-35.4s-13.4-16.2-32-4.2
			C669.1,991.3,542.1,916.3,496.7,893.4z"/>
		<path class="st9" d="M626.1,612.7c1.4,42.6-40.8,54.3-88,54.3s-85.4-20.9-85.4-46.6s31.3-60.4,78.5-61.9
			C590.2,556.5,625,580.1,626.1,612.7z"/>
		<path class="st8" d="M534.1,449.7c0,0-1,7.1-2.5,16.9c-2.8,17.9-4.2,47.4-7.8,56.3c-3.2,7.9,2.3,64.3,25,64.3
			c26.1,0,23.8-50,24.6-59.7s3.4-42.4,5.1-64.3c0.9-11.8,1.6-20.5,1.6-20.5L534.1,449.7z"/>
		<path class="st13" d="M578.5,462.8c0.9-11.6,1.5-20.1,1.5-20.1l-45.9,7c0,0-1.2,6.7-2.4,16.1C550.3,476.7,567.1,473.2,578.5,462.8
			z"/>
		<path class="st8" d="M548.5,345.8c-12,3.3-22.3,10.8-29.3,21.1c-11.2,17.1-18.8,67.3,18,90.7s65.4-9.7,65.9-42
			S596.7,340.1,548.5,345.8z"/>
		<path class="st8" d="M611.6,405.4c-3.1,7.8-9.4,12.6-13.9,10.8s-5.7-9.6-2.5-17.4s9.4-12.6,13.9-10.8S614.7,397.6,611.6,405.4z"/>
		<path class="st12" d="M554,344.7c0,0-23.1,51.8-43.4,56.4s-20,30.7-20,30.7s0.5-60.1,19.5-73.9S554,344.7,554,344.7z"/>
		<path class="st8" d="M519.1,421.2c2.5,7.7,0.2,15.3-5,17s-11.4-3.3-13.9-11s-0.2-15.3,5-17S516.6,413.4,519.1,421.2z"/>
		<path class="st8" d="M806.6,526.7c-1-1.1-6.7,6.6-7.3,9.3c-1.1-8.4-5-18-6.8-18.3c-2.2-0.4,1.9,13.5,0.7,22.3s-1.4,19.2-2.1,19
			c-1.1-0.3,0.7-12.2,1.8-21.2s-15-42.3-9.3-16.2c5.7,26.1-11,54-14.6,46.7s-3.9-20.3-8.2-16.7s0.7,21,1,34.9c0,1.6,1.6,6,3.6,11
			c1,2.6,0.3,5.6-1.9,7.5l22.5,13.5c3.6-5.3,6.7-10.2,9-14.4C813,571.8,810.7,531.3,806.6,526.7z"/>
		<path class="st11" d="M1188.4,458.4c-40.9-7.8-62.7-51.1-62.6-107.9C1122.6,381.9,1127.7,453.1,1188.4,458.4z"/>
		<path class="st11" d="M1182.9,471.2c-45.2-8.7-69.2-56.4-69.1-119.1C1110.3,386.7,1115.9,465.3,1182.9,471.2z"/>
		<path class="st11" d="M1461.4,155.4c42.6-7.1,71.9,25.6,81.5,78.6C1540.7,203.6,1523.5,139.1,1461.4,155.4z"/>
		<path class="st11" d="M1464.7,141.6c47-7.8,79.4,28.3,90,86.7C1552.3,194.8,1533.3,123.5,1464.7,141.6z"/>
		<path class="st11" d="M1435.4,266.7c0,0.4,0.2,0.9,0.6,1.1c-0.2,1.6,0.6,3.2,1.9,4.1c2.9,2,7.6,1.7,9.3-1.7
			c1.4-2.9,0.3-6.4-2.6-7.8c-0.3-0.2-0.6-0.3-0.9-0.4C1440.6,261.1,1435.4,263,1435.4,266.7z M1441.7,265c1.7,0,3,1.3,3,3
			c0,0,0,0.1,0,0.1c-0.4,3.7-6.6,2.3-6.7-0.6C1439.2,266.4,1439.8,264.9,1441.7,265L1441.7,265z"/>
		<path class="st11" d="M1421.4,284.7c-0.3-0.3-0.8-0.3-1.2-0.1c-0.1-0.1-0.2-0.2-0.3-0.3c-1.2-1-2.9-1.3-4.4-0.9
			c-3.1,0.9-4.8,4.2-3.8,7.3c0.1,0.3,0.2,0.6,0.3,0.9c1.5,3,5.2,4.2,8.2,2.7c0.2-0.1,0.5-0.3,0.7-0.4c2.6-1.7,3.4-5.2,1.7-7.8
			C1422.3,285.6,1421.9,285.1,1421.4,284.7z M1415.2,290.1c-0.7-1.3-0.2-3,1.2-3.6c1.2-0.3,2.5,0,3.5,0.9c0.6,1.2,0.3,2.5-0.5,3.5
			c-1.1,1-2.8,0.9-3.7-0.2C1415.4,290.5,1415.3,290.3,1415.2,290.1z"/>
		<path class="st11" d="M1417.1,324.4c-2.8,3.4-1.1,8.5,2.4,10.6c2.8,1.9,6.6,1.1,8.5-1.7c0.7-1,1-2.2,1-3.4c0.1-4-3.4-8.4-7.6-7.4
			C1419.7,322.3,1418.1,323,1417.1,324.4z M1424.7,328.5c0.7,2.1-0.6,4-2.8,3.1c-1.5-0.6-2.5-2.1-2.4-3.7c0.1-0.8,0.4-1.5,1-2h0.1
			C1422.3,326.1,1424.1,326.6,1424.7,328.5L1424.7,328.5z"/>
		<path class="st11" d="M1408.3,250.5c4.3,2,9.3-0.5,9.5-5.4c0.1-3.1-1.8-6-4.8-6.9c-2.4-1.8-5.8-1.3-7.6,1.1
			c-0.1,0.1-0.2,0.2-0.2,0.3C1403,242.9,1404.6,248.9,1408.3,250.5z M1413.9,244.3c0.2,1.4-0.1,2.6-1.7,3c-0.8,0.2-1.7,0.1-2.4-0.2
			c-1.6-0.7-2.5-3.5-2-5.2c0.1-0.5,0.4-0.9,0.7-1.3c0.2,0.5,0.8,0.8,1.3,0.7C1411.8,241,1413.6,242.3,1413.9,244.3L1413.9,244.3z"/>
		<path class="st11" d="M1351.3,212.3c1.5,3.4,7.1,5.8,10.5,3.9s4.2-7.9,0.5-9.9c-1.1-1.8-3.1-2.9-5.3-2.6
			C1353.2,204.1,1349.6,208.5,1351.3,212.3z M1357.3,206.7c0.8-0.1,1.6,0,2.2,0.5c-0.1,0.3-0.1,0.6,0,0.9c0.4,1.4,2,3.6,0,4.6
			c-1.3,0.7-4.1-0.6-4.8-1.7C1353.6,209.4,1355.7,207,1357.3,206.7L1357.3,206.7z"/>
		<path class="st11" d="M1298.5,252.5c-4.4,2.6-3,9,1.2,11s11.6-0.4,11.4-5.8c-0.2-5.6-6.8-7-11.2-6.1c-0.3,0.1-0.6,0.3-0.8,0.5
			C1298.9,252.3,1298.7,252.4,1298.5,252.5z M1302.6,259.9c-1.7-0.2-3.6-2.2-2.1-3.8c0.6-0.6,1.4-0.9,2.2-1c1.2,0.2,2.3,0.7,3.2,1.4
			C1308,258.4,1304.4,260.1,1302.6,259.9z"/>
		<path class="st11" d="M1301,271.3c-2.6,5.6-1.6,12,0.5,17.6c0.3,1.3,1.6,2,2.9,1.6c0.4-0.1,0.7-0.3,1-0.5c7-6,13.6-17.1,11-26.6
			c-0.4-1.3-1.7-2-3-1.6c-0.5,0.2-0.9,0.5-1.3,0.9C1307.2,263.6,1303.1,266.8,1301,271.3z M1304.7,284.1c-1-3.3-1-6.9,0-10.2
			c1.3-3.9,4.2-6.2,7.4-8.4C1313.2,272.1,1309.2,279.2,1304.7,284.1L1304.7,284.1z"/>
		<path class="st11" d="M1346.5,316.6c-3.7,2.4-2.5,7.8,0.6,10.2c3,2.2,7.2,1.6,9.4-1.4c0.2-0.3,0.4-0.6,0.6-0.9
			c2.1-4.3-1.1-8.6-5.5-9.4c-0.5-0.1-0.9,0-1.3,0.3C1348.9,315.5,1347.6,315.9,1346.5,316.6z M1353.4,321.5c0.2,1.7-1.6,2.8-3.1,2.3
			s-2.8-2.4-2.1-3.9c0.5-0.9,1.3-1.5,2.2-1.7C1351.5,319.2,1353.2,320.2,1353.4,321.5L1353.4,321.5z"/>
		<path class="st11" d="M1351.4,331c-0.1-0.1-0.2-0.1-0.3-0.2c-5-5.9-17.5,1.3-12.1,8.3c2.5,3.3,7.2,3.3,10.6,1.4
			S1355.6,333.5,1351.4,331z M1342.2,336.4c-1.1-1.8,1.3-3.4,2.8-4c1.3-0.6,2.8-0.6,4.1-0.2c-0.1,0.3,0,0.7,0.1,1
			C1350.5,336.5,1343.9,339.1,1342.2,336.4L1342.2,336.4z"/>
		<path class="st11" d="M1335.7,317.5c-1.7-0.1-3.4,0.5-4.6,1.7c-2.8,3-1.5,8.1,2.1,9.8s8.2-0.9,8.8-4.7c0.3-2-0.4-4.1-2-5.4
			C1338.8,317.8,1337.3,317.3,1335.7,317.5z M1338.2,323.3c-0.1,1.5-1.4,2.6-2.9,2.5c-0.1,0-0.2,0-0.3,0c-1.5-0.5-2.3-2.1-1.8-3.6
			c0.1-0.2,0.2-0.4,0.3-0.6c0.4-0.6,1-1,1.7-1.3C1336.6,320.9,1338.2,321.6,1338.2,323.3z"/>
		<path class="st11" d="M1332.3,345.6c-2.9,2-3.6,6-1.5,8.9c0.3,0.5,0.7,0.9,1.2,1.3c3.3,2.5,9.7,1.5,11.6-2.3
			c2.2-4.6-1.9-8.5-5.9-9.9c-0.7-0.3-1.5,0.1-1.7,0.8c0,0,0,0.1,0,0.1C1334.7,344.5,1333.4,344.9,1332.3,345.6z M1339.6,350.7
			c0,1.7-2.9,1.9-4.2,1.7c-1.7-0.3-1.9-2.1-1.1-3.3c0.8-1,1.8-1.7,3-2C1338.4,348.2,1339.6,349.4,1339.6,350.7z"/>
		<path class="st11" d="M1318.1,336.6c-3.2,2.1-4.2,6.4-2.2,9.6c2.4,3.5,7.3,2.7,10.1,0.2c1.6-1.5,2.4-3.7,2.1-5.8
			c1.7-0.6,3.3-1.4,4.8-2.5c1.8-1.2,4.3-2.5,4.8-4.7c0.2-0.6-0.2-1.2-0.8-1.4c-0.2,0-0.4-0.1-0.5,0c-2.1,0.3-3.7,2.5-5.3,3.7
			c-1.3,0.9-2.8,1.7-4,2.7c-0.5-0.5-1-0.8-1.7-1C1323.4,335.5,1320.4,335.2,1318.1,336.6z M1318.8,343.5c-0.5-1.6,0.1-3.3,1.5-4.1
			c0.9-0.6,2-0.7,3-0.3c0.1,0.2,0.2,0.5,0.3,0.6C1326.1,342.9,1320.2,346.6,1318.8,343.5z"/>
		<path class="st17" d="M1395.2,363.4c0.6-0.3,1-0.9,1-1.6c-0.3-2.7-2-5.5-3.1-7.9c-1.4-3-3.1-5.8-5-8.4c-0.6-0.8-1.3-1.6-2-2.3
			c1,0.3,2.1,0.6,3.2,0.8c8.2,1.9,16.7,1,23.9-3.5c0.6-0.4,0.8-1.2,0.5-1.8c-0.1-0.2-0.3-0.3-0.5-0.5c-4.4-2.4-9.9-5.5-15.1-6.5
			c0.3-0.9,0.5-1.9,0.5-2.9c-0.1-2.2-0.8-4.3-2.1-6.1c5.4,2.8,11.7,4.1,14.5-1.6c3.1-6.3-4.4-9.4-10.9-10.8c3.4-1.3,6.9-3,8.9-5.5
			s2.4-6.2,0-8.5c-3.3-3.2-7.5-1.8-11.3,1c0.3-0.6,0.5-1.3,0.6-1.9c2.9-1.1,5.6-2.5,8.1-4.3c0.6-0.4,0.8-1.1,0.4-1.7
			c0-0.1-0.1-0.2-0.2-0.2c-2.9-3.5-7.8-7.4-12.8-8.9c6.2-1,12.2-2.2,18.3-3c2.9,0.7,5.8,2.4,8.4,3.6c2.8,1.3,6.6,2.3,9.1,4.3
			c-2.6,2-2.2,5.9-0.3,8.3c1.9,2.4,5.3,2.9,7.8,1c0.3-0.3,0.6-0.6,0.9-0.9c1.8-2.2,1.4-5.5-0.9-7.2c-0.3-0.3-0.7-0.5-1.1-0.7
			c-0.9-1-2.1-1.5-3.3-1.6c-2.7-3.2-7.7-4.4-11.4-6c-1-0.4-2-0.9-3-1.4l1.7-0.1c8.9-0.2,17.9,0.5,26.7,2.1c-0.1,0.3-0.1,0.6-0.1,0.9
			c0,2.1,1.8,3.6,3.4,4.7c3.2,2,7.4,1.1,8.7-2.6c1.2-3.3-1.4-6.9-4.8-7.4c-1.8-0.1-3.5,0.5-4.9,1.6c-9.7-2.1-19.6-2.9-29.4-2.4
			l-2.2,0.1c3.4-1.7,6.3-4.2,8.6-7.2c2.6,0.9,5.8,0.2,7-2.6c1.6-3.5-0.8-8-4.5-8.8c-0.4-0.1-0.9,0-1.2,0.3c-1.1,0-2.1,0.4-3,1
			c-2.5,1.9-3,5.5-1.1,8c0.2,0.3,0.5,0.6,0.8,0.8l0.1,0c-4.8,3.4-9,6.9-14.7,8.9c-0.1,0-0.2,0.1-0.3,0.1c-3.3,0.4-6.6,0.9-9.9,1.7
			c3.9-3.2,7-7.1,9.2-11.6c0.5-0.8,0.2-1.9-0.7-2.3c-0.2-0.1-0.5-0.2-0.8-0.2c-6.1,0-12.2,0.9-18,2.7c1.5-3-0.1-7.1-2.4-10.6
			c2.6,0.8,5.3,1.1,8,0.8c3.6-0.4,7.3-3,6.7-7c-0.6-3.8-4.6-6.1-8.2-7.2c2.3-2.4,3.1-5.8,2.1-8.9c-1.5-3.6-5.2-5.8-9.1-5.3
			c-2.2,0.2-4.3,1.2-5.8,2.7c-0.1-5.6-1.2-11.9-7.9-11.4c-5,0.4-7.9,4.8-8.2,9.3c-4.6-3.6-10.7-6-13.1,0c-2.1,5.3,0.3,9.9,4.1,13
			c-2.5-0.2-5.1,0.1-7.5,1c1.8-4.6,2.5-9.6,1.8-14.5c-1.1-7.4-5.8-13.7-10.3-19.4c-0.8-0.8-2-0.8-2.8,0c-0.1,0.1-0.2,0.3-0.3,0.4
			c-3,5.9-4.5,12.5-4.2,19.1c-2.8-3.2-5.9-6.1-9.2-8.6c-4.7-3.6-10-6.3-15.9-6.8c-1,0-1.9,0.8-1.9,1.9c0,8.5,4.1,16.4,11,21.3
			c5.3,3.7,13,5.3,19,2.5c2,3.5,5,6.4,8.6,8.2c-0.7,1.4-0.8,3-0.3,4.6c0.3,1,0.8,2,1.4,2.8c-1.6,0.4-3.1,1.1-4.5,2
			c0.1-1.6-0.1-3.3-0.7-4.8c-1.6-3.7-3.9-7.1-6.9-9.8c-0.6-0.6-1.6-0.6-2.2,0c-4.7,4.6-9.6,10.9-10.5,17.5c-2.4-3-5.1-5.9-7.9-8.5
			c0.2,0.1,0.4,0.2,0.6,0.3c3.5,1.3,8.7-0.3,9.9-4.1s-1.9-8.3-6-8c-0.4-0.2-0.9-0.2-1.4-0.3c-2,0-3.8,1-4.9,2.6
			c-1.7,2.1-1.9,5-0.5,7.3c-1.9-1.8-4-3.2-6.4-4.3c1.9-3.4,0.3-8.2-3.7-8.8c-2-1.1-4.3-1-6.3,0.1c-3.1,1.8-4.1,5.8-2.3,8.9
			c0.3,0.5,0.7,1,1.1,1.4c2.4,2.3,6.6,2.3,9.3,0.4c3.1,1.7,5.9,3.9,8.5,6.3c3.7,3.6,7.2,7.6,10.3,11.8c0.4,1.7,1.1,3.3,2,4.7
			c0.1,0.2,0.3,0.4,0.5,0.5c-1.5,2.1-2,4.7-1.4,7.3c0.4,1.4,1.1,2.8,2.1,3.9c-5.9,0.2-12.6,1.8-11,7.5c1.3,4.5,6,5.5,10.7,5
			c-1.4,1.2-2.4,2.6-3.2,4.3c-1.2,3-0.6,6.8,2.3,8.6c3.2,2.1,7.1-0.1,9.5-2.4c0.4-0.4,0.8-0.8,1.2-1.3c1.3,4.5,4.2,8.2,9.4,7.3
			c3.5-0.6,5.8-3.9,6.2-7.3c0.2-1.4,0.1-2.8-0.4-4.2c1.1,0.3,2.3,0.5,3.5,0.4c2.6-0.1,5.6-1.3,6.8-3.7c1.5,1.4,3.3,2.5,5.3,3.2
			c2.6,1.2,5.4,2,8.3,2.3c-1.1,2.6,0,5.6,1.6,8.3c-6.2-1.6-13.8-1.4-13.8,6c0,6.2,6.7,7,12.8,6.1c-1.6,1.3-2.9,3.1-3.8,5
			c-0.9,2.4-0.4,5,1.3,6.9c-0.3,0.1-0.5,0.3-0.8,0.4c-0.3,0.2-0.6,0.5-0.8,0.9c-0.1-0.1-0.1-0.3-0.2-0.5c0-0.9-0.7-1.7-1.6-1.7
			c-0.4,0-0.8,0.1-1.1,0.4c-8.3,7.8-20.6,24.1-9.2,34.6c0.8,0.7,1.9,0.7,2.7,0c4.4-4.8,8.9-9.8,10.3-16.3c1-4.4,1-8.9,0.1-13.3
			c1.7,1.3,3.6,2.4,5.6,3.1c0,0,0,0.1,0,0.1c0.4,1.9-0.6,3.8-0.7,5.6c-0.1,1.6,0.1,3.2,0.6,4.8c1,3.1,2.8,5.8,5.1,8
			C1383,360.3,1390.2,366.8,1395.2,363.4z M1435.4,291.7c-1.1,1.2-2.7,0.7-3.6-0.5c-0.8-1-1.2-2.8-0.2-3.7c0.7-0.6,1.6-0.7,2.4-0.4
			c0,0.5,0.3,0.9,0.6,1.2C1435.7,289,1436.3,290.7,1435.4,291.7L1435.4,291.7z M1456.2,279.7c0.1,1.3-0.8,2.5-2.1,2.6
			c-0.1,0-0.2,0-0.3,0c-0.7,0-4.6-2.4-3.3-3.2c0.5-0.3,0.7-0.9,0.6-1.5c0.5-0.2,1-0.4,1.5-0.5C1454.4,277,1455.9,278.1,1456.2,279.7
			L1456.2,279.7z M1425.1,260.2c0.2-0.8,0.7-1.5,1.4-1.8c0.4-0.2,0.9-0.3,1.4-0.5c1,0.9,2.2,1.9,2.4,3.3c0.3,1.9-1.2,2.8-2.8,2.4
			C1425.8,263.3,1424.8,261.8,1425.1,260.2C1425.1,260.2,1425.1,260.2,1425.1,260.2L1425.1,260.2z M1312.7,241.4
			c0.7-1.1,2-1.7,3.3-1.5c1,0.8,2.1,1.7,2.2,2.9c0.3,2-2.4,2.9-4,2.7C1312,245.1,1311.4,243.1,1312.7,241.4L1312.7,241.4z
			 M1294.4,241.5c-1.3-1-1.6-2.9-0.6-4.2c0.1-0.1,0.1-0.2,0.2-0.3c0.8-0.8,1.9-1.2,3-1.3c0.1,0.1,0.2,0.2,0.4,0.3
			c1.4,0.9,2.8,2.6,1.9,4.3S1295.9,242.4,1294.4,241.5L1294.4,241.5z M1357.4,360.9c-6.3-8.9,3-17.9,8.4-25.5
			c0,4.1,0.7,8.3-0.2,12.5C1364.4,353,1361,357.1,1357.4,360.9L1357.4,360.9z M1390.9,332.1c-4.3-1.4-5.6-8.6-5.9-12.8
			c1.6,0.2,3.2-0.1,4.8-0.6c1.3,1.7,2.5,3.4,3.5,5.3C1394.4,326.1,1396.1,333.7,1390.9,332.1L1390.9,332.1z M1383.2,309.1
			c0.7-0.9,1.6-1.5,2.7-1.8c0.1,0.3,0.3,0.6,0.6,0.7c1,0.5,2.5,1,3.1,1.9c0.7,1.1,0.9,2.5,0.6,3.7c-0.1,0.3-0.3,0.5-0.6,0.7
			c-0.4,0.1-0.8,0.3-1,0.6c-1.4,0.6-3.1,0.7-4.6,0.2C1381.7,314.3,1381.9,311,1383.2,309.1L1383.2,309.1z M1382.1,326
			c0.2,0.7,0.4,1.4,0.6,2.1c-0.6,0-1.2-0.1-1.8-0.1C1381.4,327.4,1381.8,326.7,1382.1,326z M1401.7,314.4c2.5,0.8,9.3,3.5,5.1,6.5
			c-3.6,2.6-9.8-1.4-13.8-4.4c0.2-0.2,0.4-0.5,0.6-0.8c0.4-0.8,0.7-1.7,0.6-2.7C1396.8,313.1,1399.3,313.6,1401.7,314.4
			L1401.7,314.4z M1405.2,297.7c4.5,1.2,2,5.2-0.3,6.7c-1.2,0.7-2.4,1.2-3.6,1.7c-2.6,1.1-5.2,2.1-7.8,3.2c-0.1-0.1-0.1-0.3-0.2-0.4
			c-0.3-0.7-0.7-1.4-1.3-1.9c1.5-1.7,3.1-3.3,4.7-4.9C1398.8,300.4,1402.3,296.9,1405.2,297.7L1405.2,297.7z M1389,305
			c-0.7-0.4-1.5-0.6-2.3-0.6c0-0.2,0-0.4,0-0.6c-0.7-2.6-1.1-5.4-0.1-8c1-2.7,4.2-5.2,7.1-3.8C1397.9,294,1391.7,301.7,1389,305z
			 M1397.3,284.5c2.5,1.4,4.7,3.2,6.6,5.3c-1.8,0.9-3.6,1.8-5.4,2.5c-0.4-1.8-1.7-3.3-4.4-4c-3.4-0.9-7.1,0.8-9.3,3.5
			c-1.2,1.5-2,3.3-2.3,5.1c-1-1.2-2.3-2-3.7-2.4c-0.4-3.9-3-7.6-6.2-10.5c5.5,1,12.9-0.8,16.6-2.2h0.1
			C1392,282.5,1394.7,283,1397.3,284.5L1397.3,284.5z M1403.9,265.3c-7,11.1-21.2,18.3-34.1,14.4
			C1379.1,270.9,1391.2,265.7,1403.9,265.3L1403.9,265.3z M1380.5,267.9c-5.1,2.5-9.7,5.9-13.8,9.8c-0.6,0.5-0.7,1.4-0.3,2.1
			c-3.4-1.5-7.1-2.2-10.8-2.1c0.1-0.2,0.3-0.4,0.4-0.6c0.8-1.2,1-2.8,0.5-4.2c1.1-1.6,2.4-3.2,3.8-4.5c0.5-0.5,1.2-1,1.8-1.5
			c4.9,1.3,8.1-2,9.8-6.2c1,2.1,2.5,3.9,4.4,5.2C1377.5,266.9,1379,267.6,1380.5,267.9L1380.5,267.9z M1353.8,288.8
			c0.4,1.6-0.4,3.2-1.8,3.9c-1.1,0.3-2.3,0.1-3.4-0.3c-2.3-0.8-4.2-2.5-6-4.1l-0.1-0.1c0.5-1.1,0.8-2.2,0.8-3.4h0.3
			C1346.9,284.1,1352.4,285.3,1353.8,288.8L1353.8,288.8z M1332.9,285.1c-1-2.3,0.7-3.6,2.3-4.8c1.1,0.2,2.2,0.6,3.1,1.2
			c1.2,0.5,1.9,1.7,1.9,3c0,1.5-1,2.7-2.5,3C1335.8,287.9,1333.8,286.9,1332.9,285.1L1332.9,285.1z M1369.6,241.7
			c1.5-1.1,3.4-1.3,5.1-0.4c0.7,2,1.9,4,1,6.1c-1.1,2.6-4.9,2.6-6.7,0.8c-1.6-1.8-1.5-4.5,0.2-6.1
			C1369.3,241.8,1369.4,241.7,1369.6,241.7L1369.6,241.7z M1367.3,251.5c0.7,0.5,1.5,0.9,2.3,1.2c-0.2,0.3-0.2,0.6-0.2,0.9
			c0,2.4-0.2,4.9-1.4,7c-1.2,1.9-3.9,3.4-5.9,1.8C1358.7,259.6,1365,254.1,1367.3,251.5L1367.3,251.5z M1359.5,265.8
			c-0.4,0.3-0.7,0.6-1.1,0.8c-1.5,1.2-2.8,2.5-4,4c-0.4-0.3-0.8-0.5-1.2-0.7l-0.2-0.1c0.7-0.5,1.6-1.1,1.8-1.4c1-1,1.9-2.2,2.7-3.4
			c0.2-0.3,0.4-0.6,0.6-0.9C1358.4,264.9,1358.9,265.4,1359.5,265.8L1359.5,265.8z M1342.8,281.2c-0.1,0-0.3,0.1-0.4,0.2
			c-0.3-0.5-0.7-0.9-1.1-1.3c-1-0.8-2.1-1.4-3.4-1.9v-0.2c2.4-3.6,6.2-6.2,10.7-6.1c1.2,0,2.4,0.2,3.5,0.8c1.9,1.2,1.2,3.2-0.3,4.3
			C1349.1,278.9,1346,280.3,1342.8,281.2L1342.8,281.2z M1382.8,264c-5.7,0.8-8.3-6.7-9.5-10.8c0,0,0,0,0-0.1
			c1.4-0.1,2.8-0.7,3.9-1.6c0.4-0.3,0.8-0.7,1.1-1.1c0.1,0.2,0.3,0.3,0.4,0.4c2,1.3,3.7,3,4.8,5.1
			C1384.6,257.9,1386.8,263.4,1382.8,264L1382.8,264z M1396.1,245.3c5.6,5.2-2.3,6.1-5.7,5.6c-3.4-0.6-6.7-1.7-9.8-3.3
			c-0.3-0.2-0.7-0.2-1-0.2c0.2-1,0.3-2,0.1-3c3.6,0.4,7.6,0.1,10.7-1.7C1392.5,243,1394.5,243.9,1396.1,245.3L1396.1,245.3z
			 M1354.1,232c-0.5-2.4-0.3-4.8,3.2-4.9c1.3,0.2,2.5,0.6,3.6,1.4c1.7,1,3.1,2.3,4.2,3.9c0.3,0.7,0.8,1.3,1.3,1.9
			c1.3,1.5,3.7-0.4,2.7-2c-0.2-0.4-0.5-0.8-0.8-1.1c-2.5-4.8,3.3-13.7,7.4-8.6c2.6,3.3,0.9,8.3,0.9,12.1c0,1.6,2.6,2.7,3.3,0.9
			c1.1-2.6,3-5.1,5.9-5.7c3.1-0.6,6.5,1.6,6.2,5c-0.2,2.1-1.6,4-3.5,4.8c-2.7-0.2-5.5,0.2-8,1.2l-0.8-0.1c-0.3,0-0.7,0-1,0.2
			c-0.4-0.8-1-1.4-1.7-2c-0.6-0.5-1.4-0.5-2-0.1c-2.2-1.3-5-1.2-7.2,0.2c-0.9,0.6-1.7,1.4-2.3,2.3l-0.3-0.1
			C1360.2,240.1,1355.1,237.4,1354.1,232z M1338.1,212.2c3.4,4.5,6.5,9.4,7.7,15c1,4.9-0.3,9.4-1.1,14.1
			C1334.1,235.5,1333.9,222.5,1338.1,212.2L1338.1,212.2z M1317.5,230.5c-5.1-3.8-7.5-9.4-8.7-15.4c4.9,0.8,9.1,3.5,12.9,6.6
			c4.3,3.6,8.7,7.6,11.5,12.6C1327.6,234.8,1322.3,234.1,1317.5,230.5L1317.5,230.5z M1346.3,247.9c-0.6-7.2,13.8-4.1,18.1-3.7
			c-0.2,1.5,0,2.9,0.7,4.3c-2.8,2.2-6.2,3.5-9.8,3.8C1352,252.6,1346.6,252.1,1346.3,247.9L1346.3,247.9z M1358.9,255
			c-0.8,1.1-1.4,2.3-1.7,3.5l-0.1,0.3c-1.4,2.1-2.4,4.5-4.3,6.4c-1.1,1.2-3.2,2.2-4,3.7c-4.4-0.1-8.6,1.8-11.3,5.3
			c-0.5-1.9-1.3-3.6-2.4-5.2c0-3.5,1.4-6.8,3.8-9.3c2.3-2.5,5.2-3.5,8-5.1C1350.2,256.4,1354.7,256.1,1358.9,255L1358.9,255z
			 M1324.6,265.6L1324.6,265.6c-4.7-8.4,1.4-16,6.6-22.4c1.6,1.8,2.9,3.8,3.9,6c1.6,3.2,1,5.9,0.4,9.2c-1.7,2.2-2.8,4.8-3.5,7.5
			C1329.8,264.3,1326.9,264.2,1324.6,265.6L1324.6,265.6z M1324.7,274.8c-0.8-2.1-0.1-5.4,2.4-6.1c4.7-1.2,7.2,5.3,7.2,8.8
			c-0.4,0-0.8,0.1-1.2,0.1c-1.2,0.2-2.3,0.8-3,1.8c-0.1-0.1-0.3-0.1-0.4-0.2C1327.5,278.6,1325.7,277,1324.7,274.8L1324.7,274.8z
			 M1323.9,287.7c-1.7,0.3-5.7,0.5-7.2-0.9c-0.2-0.9-0.4-1.9-0.6-2.8l1.6-0.6c3.5-1.2,7.3-1.5,11-0.8c-0.2,1-0.2,2.1,0.1,3.1
			l0.1,0.2C1327.3,286.8,1325.7,287.4,1323.9,287.7L1323.9,287.7z M1329.6,297.6c-1.3,1.7-6.7,5.4-6.9,1c-0.1-3.9,5.5-6.7,8.3-9.3
			c0.3,0.3,0.7,0.5,1,0.8c-0.1,0.2-0.2,0.4-0.2,0.6c-0.2,1-0.3,1.9-0.3,2.9C1331.2,295,1330.6,296.4,1329.6,297.6L1329.6,297.6z
			 M1340.3,303.5c-4.1-0.5-4.9-6.7-4.7-10.5c0.1-0.5,0.2-1.1,0.2-1.6c1.2,0.1,2.4,0,3.5-0.4c0.1,0.1,0.1,0.2,0.2,0.3
			c1.7,1.9,3.6,3.9,4.2,6.5C1344.3,300,1343.4,303.9,1340.3,303.5L1340.3,303.5z M1364.9,293.6c-2.4-0.8-4.3-2.3-6.5-3.5
			c-0.2-4.1-3.9-6.9-7.9-8.2c0.6-0.3,1.1-0.6,1.7-1c1.6,0,3.2-0.4,4.8-0.4c3,0,6.1,0.7,8.8,2c2.7,1.3,5,3.2,6.8,5.5
			c1.5,2,2.3,4.2,3.3,6.4c-0.7,0.2-1.3,0.6-1.9,1h-0.1C1371,295.3,1367.9,294.6,1364.9,293.6L1364.9,293.6z M1375,300.2
			c0.7-2.2,2.9-2.5,4.8-1.6c2,1,3,4,3.6,6c0,0.1,0.1,0.3,0.2,0.4c-0.6,0.2-1.1,0.5-1.6,0.9c-1.2,0.9-2.1,2.1-2.7,3.5l0,0
			C1377.1,307,1373.9,303.7,1375,300.2L1375,300.2z M1371,315.9c-1.6,0.1-6.7,0.2-7.5-1.7l0.4-3.6c0.8-0.7,1.8-1.2,2.9-1.3
			c1-0.2,2.1-0.2,3.2-0.1c2.6,0.3,5.1,1.1,7.4,2.4c0.4,0.2,0.9,0.3,1.3,0.1c-0.1,0.7,0,1.3,0.1,2c-0.1,0-0.3,0.1-0.4,0.1
			C1376.1,315.1,1373.6,315.8,1371,315.9z M1371.8,326.5l0.7-2.1c0.6-1,1.4-2,2.4-2.8c1.7-1.7,3.4-3.3,5.2-4.9
			c0.3,0.4,0.7,0.8,1.1,1.1c-0.4,2-1,3.9-1.8,5.7c-0.7,1.5-2.7,4.9-4.7,4.8L1371.8,326.5z M1373,333C1373,333,1373,333,1373,333
			c0.2-0.2,0.4-0.3,0.5-0.5c2.2,0.1,4.3-0.8,5.7-2.5c0.5,0,1,0,1.5,0c1,0,2.1,0.3,3.1,0.5c1.8,3.7,4.8,6.5,9.1,5.7
			c1.6-0.3,2.9-1.1,3.9-2.4c1.8,0.7,3.7,1.3,5.5,2c2.5,1,4.9,2.2,7.3,3.4c-6.1,2.6-13,2.4-19.3,0.7c-3.4-0.9-6.7-2.1-9.9-3.6
			c-1.7-0.8-3.4-1.6-5-2.4C1374.9,333.8,1373.9,333.4,1373,333z M1386.4,357.4c-2.5-1.7-4.6-3.9-6.3-6.4c-1.4-2.1-2-4.8-1.6-7.3
			c0.2-1.1,0.4-2.1,0.6-3.1c2.6,1.7,4.8,3.9,6.5,6.5c1.3,1.9,2.3,3.9,3.3,5.9c0.7,1.6,1.4,3.2,2,4.8c0.3,0.8,0.8,1.7,1.1,2.5
			C1390.1,360.2,1387.6,358.2,1386.4,357.4L1386.4,357.4z"/>
		<path class="st11" d="M1337.7,310.8c-9.7-5.4-22.9-3.7-31.9,2.2c-1,0.6-1.3,1.8-0.7,2.8c0.2,0.3,0.4,0.5,0.7,0.7
			c5,2.7,10.3,5.3,16.2,4.3c5.3-1,10.3-3.4,14.3-7h0.1C1338.2,314.6,1339.4,311.8,1337.7,310.8z M1311,314.8
			c7.2-3.7,14.7-3.8,22.5-1.7c-3.7,1.9-7.4,3.6-11.5,4.2S1314.4,316.5,1311,314.8z"/>
		<path class="st11" d="M1348.1,359.6c-12.4-0.5-24.8,1.1-37.2,1.3s-24.7-0.1-37-0.7c-0.4-0.5-0.8-0.9-1.3-1.4
			c1.9-0.1,3.8-0.5,5.7-0.8c3.1-0.5,6.3-1,9.4-1.6c5.9-1,11.7-2.5,17.2-4.7c0.6-0.2,0.3-1.2-0.3-1.1c-5.7,0.4-11.5,1.2-17.1,2.3
			c-2.9,0.5-5.8,0.9-8.8,1.3s-6.4,0.5-9.2,1.6c-0.4-0.4-0.8-0.9-1.2-1.3s-0.7-0.9-1-1.3c0.6-0.2,1.2-0.4,1.7-0.5
			c3-0.8,6-1.6,8.9-2.4c4.6-1.3,11.3-2.2,14.9-5.5c0.2-0.2,0.2-0.4,0-0.6c-0.1-0.1-0.1-0.1-0.2-0.1c-4.3-0.8-9.4,1.3-13.5,2.4
			c-2.5,0.6-5,1.3-7.6,1.9l-4.1,1.1l-1.4,0.4c-0.4,0-0.8,0.1-1.2,0.2h-0.1c-0.9-1.3-1.7-2.7-2.5-4.1c3.2-0.2,6.5-1.5,9.4-2.3
			c4.5-1.2,9-2.5,13.5-3.8c4.3-1.3,8.5-2.6,12.7-4c4.3-1.4,8.9-2.6,12.6-5.3c0.1-0.1,0.2-0.2,0.3-0.3c0.8-0.2,1.2-1,1-1.8
			c0-0.1-0.1-0.3-0.2-0.4c-2.1-3-4-6.1-5.7-9.3c-1.6-3.3-3-6.7-4.3-10.2c-2.7-6.3-5-12.8-6.9-19.4c-1.7-6.3-2.8-12.7-3.4-19.2
			c-0.6-6.7-0.1-13.3-0.3-20c0-0.6-0.5-1.2-1.2-1.2c-0.5,0-1,0.3-1.1,0.8c0,0.1,0,0.1,0,0.2c-2.9,1.7-5.2,4.7-7.4,7.2
			c-2.7,3.1-5.2,6.3-7.6,9.6c-5.2,7.3-9.9,15-13.8,23.1c-3.9,7.8-7.1,15.9-9.6,24.3c-1.1,3.9-2.1,7.8-2.8,11.8
			c-0.4,2.5-1.6,6.4-0.9,9.1c-4.7,1-9.4,2-14.2,2.7c-5.2,0.7-10.3,1.3-15.4,2.5c-4,0.9-9.1,2-12.1,4.9c-2.2,2.1-4,5.4-2.1,8.3
			c1.1,1.5,2.5,2.8,4,4c1.9,1.7,2.1,2.5,1.6,5.1c-0.7,3.4-1,6.6,2.2,9c1.3,0.9,2.8,1.4,4.4,1.5c-2.4,2.1-3,5.6-1.5,8.4
			c1.1,2,3.2,3.3,5.6,3.4c-1.2,2.1-1.4,4.6-0.6,6.9c0.8,2,2.6,3.4,4.7,3.8c-0.5,3.6,0.9,7.2,5.5,6.9c4.8-0.3,9-7.2,11.7-10.6
			c7.6-9.8,14.4-19.6,27.2-22.7c2.2-0.5,1.9-3.4,0.3-4.1c-3.6-4.4-8.3-7.8-11.6-12.5c-3.6-5.2-4.3-11.3-6.4-17.1
			c1.1-2.4,0.9-5.9,1.4-8.4c0.8-4,1.7-7.9,2.8-11.8c2.4-8.2,5.6-16.2,9.4-23.8c3.7-7.5,8-14.8,12.8-21.7c2.4-3.5,5-7,7.7-10.4
			c1.1-1.4,2.4-2.7,3.5-4.1c-0.5,4.9-0.6,9.9-0.2,14.8c0.4,6.9,1.4,13.7,3.1,20.3c1.8,6.8,4.1,13.5,6.9,19.9
			c2.6,6.3,5.3,13.9,10.3,18.8c-3.4,0.7-6.8,1.6-10.1,2.8c-4.2,1.3-8.5,2.6-12.7,3.8s-8.5,2.4-12.8,3.5c-3.5,0.9-8.4,1.3-11.6,3.1
			c-2.2-5-3.6-10.4-6.1-15.3c-0.2-0.4-0.7-0.6-1.2-0.3c-0.3,0.1-0.4,0.4-0.4,0.7c-0.7,7,2.9,14.8,6.3,20.7s8.1,13.2,14.1,16.8
			c0.7,0.5,26.2,0.6,38.3,0s24.9-0.8,36.7-4c0.3-0.1,0.4-0.4,0.3-0.7C1348.5,359.8,1348.3,359.7,1348.1,359.6z M1262.8,365.4
			c-7.1,2.6-13.3,7.2-17.9,13.1c-2.7,3.4-5.1,7-7.8,10.4c-1.4,1.9-3,3.7-4.6,5.5c-0.7,0.9-1.5,1.7-2.4,2.4c-3.4,2.6-3.6-1.3-2.7-3.6
			c0.7-1.7-1.4-2.8-2.7-2.2c-2.7,1.2-3.5-2.3-3.3-3.9c0.4-1.7,1.4-3.3,2.6-4.5c0.7-0.7,0.7-1.7,0-2.4c-0.7-0.7-1.7-0.7-2.4,0l0,0
			c-1.7,1.2-4.1,0.8-5.4-0.9c-0.3-0.4-0.5-1-0.6-1.5c-0.4-2.2,0.8-4.3,2.5-5.7c1.7-0.4,3.4-0.9,5-1.5c5.6-1.8,11.1-4.1,16.4-6.8
			c2.3-1.2,0.4-4.4-1.9-3.5c-4.5,1.9-8.9,4-13.5,5.7c-3.4,1.3-13,5.4-12.3-1.7c0.2-2.4,1.5-4.6,0.5-7c-1.1-2.7-4.2-3.5-5.7-5.9
			c-3.8-5.8,15.3-8.9,18.7-9.5c7-1.3,14.5-2,21.1-4.8C1247.9,348.2,1254.4,358.1,1262.8,365.4z"/>
		<polygon class="st11" points="592.8,73.2 627.8,67.2 637.8,153.2 627.8,166.2 		"/>
		<circle class="st11" cx="637.8" cy="183.7" r="9.5"/>
		<polygon class="st11" points="637.8,63.7 672.8,57.7 682.8,143.7 672.8,156.7 		"/>
		<circle class="st11" cx="682.8" cy="174.2" r="9.5"/>
		<text transform="matrix(1 0 0 1 692.28 183.74)" class="st11 st18 st19">?</text>
		<path class="st17" d="M737.9,224.5l4.3,24c5.5-3.5,10-8.5,13-14.4c1.9-4,4.5-9.5,1.8-14.5c-1.5-2.7-5.5-6.8-10.9-6
			c-3.9,0.7-7.2,3.5-8.5,7.3h0.2c-2.8-3.1-7-4.6-11.1-3.8c-5.7,1.2-8.2,6.4-8.7,9.5c-1,5.7,3.6,9.9,7,12.9c6,5.5,13.3,7.8,18.1,8.8
			l-4.3-24"/>
		<path class="st17" d="M774.3,197.6l-4.6,14.5c4.1-0.3,8-1.7,11.3-4.1c2.2-1.7,5.3-3.9,5.2-7.5c0-1.9-1-5.3-4.2-6.5
			c-2.4-0.8-5-0.2-6.8,1.5h0.1c-0.6-2.5-2.5-4.6-5-5.3c-3.5-1-6.4,1.2-7.6,2.7c-2.2,2.8-0.9,6.5,0,9.1c1.5,4,4.1,7.4,7.4,10.1
			l4.6-14.4"/>
	</g>
	<g id="Layer_4">
		<path class="st20" d="M535.5,420.7c4.2,10.7,14,18.1,24.7,18.7c13.4,0.7,26.3-9.3,29.3-24L535.5,420.7z"/>
		<path class="st20" d="M1455.8,615.7c2.1-10.6,52.1-14.9,56.2-4.5c2.3,6-9.5,19.4-24.3,21.6
			C1470.4,635.6,1454.5,622.3,1455.8,615.7z"/>
	</g>
	<g id="Layer_3">
		<path class="st21" d="M1146.7,317.5c6.7-46.9,41-74.3,60.7-89.9c22.5-18,44.5-26.6,64.5-34.5c29.8-11.7,54.1-16.1,73.5-19.5
			c27.8-4.9,47.3-8.3,73.5-6c26.8,2.3,49.8,4.3,70.5,21c33.2,26.9,34.4,70.8,34.5,76.5c0.5,40.4-23.7,69.1-45,94.5
			c-13.8,16.5-29.8,31-47.5,43.2c-3.1,31.9-6.3,63.8-9.4,95.8l-50.6-68c-23,8.1-46.9,13.1-71.2,14.9c-41.1,2.9-81.5,5.7-114.3-21.3
			C1154.1,398.1,1141.4,354.5,1146.7,317.5z"/>
		<path class="st21" d="M854.4,151.6c-6-46.9-36.6-74.3-54.2-89.9c-20.1-18-39.7-26.6-57.5-34.5c-26.6-11.7-48.3-16.1-65.6-19.5
			c-24.8-4.8-42.2-8.3-65.6-6c-23.9,2.3-44.5,4.3-62.9,21c-29.7,26.9-30.7,70.8-30.8,76.5c-0.4,40.4,21.1,69.1,40.2,94.5
			c12.1,16.2,26.4,30.8,42.4,43.2c2.8,31.9,5.6,63.8,8.4,95.8c15.1-22.7,30.1-45.3,45.2-68c20.3,8.1,41.7,13.1,63.5,14.9
			c36.7,2.9,72.7,5.7,102-21.3C847.8,232.3,859.1,188.6,854.4,151.6z"/>
	</g>
</g>
</svg>
