<svg xmlns="http://www.w3.org/2000/svg" viewBox="0 0 2629.8 1387.94"><defs><style>.cls-1{fill:#edf3ff;}.cls-2{fill:#ead6c3;}.cls-3{fill:#d3671e;}.cls-4{fill:#f1a34f;}.cls-5{fill:#d86713;opacity:0.4;}.cls-6{fill:#233862;}.cls-7{fill:#ffa412;}.cls-8{fill:#2c3a64;}.cls-9{fill:#2b478b;}.cls-10{fill:#ed985f;}.cls-11{fill:#ffb27d;}.cls-12{fill:#739af0;}.cls-13{fill:#4a75cb;}.cls-14{fill:#e27f2b;}.cls-15{fill:#d9935c;}.cls-16{fill:#963333;}.cls-17{fill:#2e3552;}</style></defs><title>Asset 1</title><g id="Layer_2" data-name="Layer 2"><g id="Layer_1-2" data-name="Layer 1"><path class="cls-1" d="M2385.82,1382.26s306-328.56,51.75-684.26C2212,382.39,1949,404,1756,532c-82.19,54.55-319.15,6.72-520.84-314.42C960.11-220.33,6.71,45.28,180.54,719.08c84.12,326.07-256,337.93-82.7,663.87Z"/><path class="cls-2" d="M1702.79,105h-55.65l-.32-105-119,.37v0l-35.68.14h-.25l.08,33.54.25.19.17,70.76H1013.3V1381.58h689.49v.45h93.71V105Zm-673.87,937.85v2.33h0Zm658.25,160.49-181.93.56v.07l-55.08.21h-.38l.13,51.76.38.28.27,109H1028.92V1080.06h658.25Zm-511.29-158.31.64.15h-.64Zm511.29.15h-64.3l-.5-265.58-183.56.56v.07l-55.08.22h-.37l.12,51.76.33.25.33,212.59h55.17v.13H1267.6l-.45-163.65-183.56.57v.07l-54.67.21V760.05h658.25Zm0-320H1499.63l-.5-163.64-183.56.56v.07l-55.07.22h-.38l.12,51.76.38.28.28,110.75h-232V440.05h658.25Zm0-320H1028.92V120.05h658.25Z"/><rect class="cls-3" x="930.97" y="1111.63" width="253.36" height="285.67" transform="translate(-200.08 2308.24) rotate(-89.82)"/><polygon class="cls-4" points="1286.58 1128.67 1057.88 1127.79 1057.26 1381.15 1285.96 1382.03 1286.58 1128.67"/><polygon class="cls-5" points="1057.26 1127.75 1286.55 1128.63 1286.35 1209.19 1056.63 1381.11 1057.26 1127.75"/><rect class="cls-3" x="750.92" y="1208.11" width="162.8" height="183.56" transform="translate(-470.13 2128.2) rotate(-89.82)"/><polygon class="cls-4" points="979.43 1219.06 832.47 1218.5 832.07 1381.29 979.03 1381.86 979.43 1219.06"/><polygon class="cls-5" points="832.47 1218.5 979.81 1219.06 979.68 1270.82 832.07 1381.29 832.47 1218.5"/><path class="cls-6" d="M1512.34,1295a92.78,92.78,0,0,0-5.21-24c-.52-1.42-1.07-2.82-1.65-4.19-.42-1-.86-2-1.32-3s-1.07-2.21-1.63-3.28-1.25-2.34-1.92-3.48a75.8,75.8,0,0,0-11.41-15l0,0c-1.52-1.53-3.11-3-4.74-4.35-1.28-1.06-2.59-2.05-3.93-3a61.31,61.31,0,0,0-5.93-3.73c-.76-.41-1.52-.81-2.29-1.2a54.58,54.58,0,0,0-20.77-5.61c-1.1-.07-2.21-.1-3.32-.1h-30c-35.62,0-64.5,35.37-64.5,79s28.88,79,64.5,79h30c1.11,0,2.22,0,3.32-.1a54.42,54.42,0,0,0,20.77-5.62c.77-.38,1.53-.78,2.29-1.2a59.33,59.33,0,0,0,5.93-3.72c1.34-1,2.65-1.94,3.93-3,1.63-1.37,3.22-2.82,4.74-4.36l0,0a75.8,75.8,0,0,0,11.41-15q1-1.71,1.92-3.48c.56-1.08,1.11-2.17,1.63-3.28s.9-2,1.32-3c.58-1.37,1.13-2.77,1.65-4.19a92.87,92.87,0,0,0,5.21-24q.33-4,.33-8.08T1512.34,1295Z"/><path class="cls-7" d="M879.27,560.54H864.14c1.08-3.08,0-6.32-2.57-7.36s-5.86.63-7.15,3.81a7.17,7.17,0,0,0-.49,3.55H839.15a1.84,1.84,0,0,0-1.37.62l-4.88,5.65a1.8,1.8,0,0,0,1.36,3h40.12a1.83,1.83,0,0,0,1.36-.62l4.89-5.66A1.8,1.8,0,0,0,879.27,560.54Zm-18.47-.95a1.73,1.73,0,1,1-.8-2.54A1.9,1.9,0,0,1,860.8,559.59Z"/><path class="cls-8" d="M592.38,150.7l-48.69,38.16c-2.28,3.57,2.61,3.76.47,8.16-19.78,40.61-6.51,84,10.24,79.65,10.74-2.81,13.78,15.52,13.78,15.52L672.55,207.7S634.21,128.38,592.38,150.7Z"/><path class="cls-9" d="M628.72,1347.23l-22.17,8.26s-96.29-133.55-108.14-251c-2.12-21-1.41-41.3,3.17-60.07,0,0-.94-5.37-2.59-14.88-.76-4.43-1.7-9.77-2.77-15.89-3.13-17.93-7.44-42.48-12.36-70.42-11.33-64.31-26-146.51-37.41-206.95l6-1.92,64.63-20.84L530.41,671l48.12-12.67s10.76,21,20.37,120.38c1.77,13,3.38,27.4,4.59,43a850.29,850.29,0,0,1-4.58,174q-3.3,25.89-8.45,53.41c-2.53,13.43-2.91,31.73-1.84,52.74C593.47,1198,628.72,1347.23,628.72,1347.23Z"/><path class="cls-6" d="M603.49,821.73,499,1029.49c-.76-4.43-1.7-9.77-2.77-15.89-3.13-17.93-7.44-42.48-12.36-70.42-11.33-64.31-26-146.51-37.41-206.95l6-1.92,64.63-20.84L530.41,671l48.12-12.67s10.76,21,20.37,120.38C600.67,791.78,602.28,806.15,603.49,821.73Z"/><path class="cls-9" d="M557.52,685l-2.42-20.74c-40.53,10.76-148.82-30.08-148.82-30.08S367,668.72,372.17,751.45c2.51,40.39,7.11,212,11.91,262.76,1.74,18.4,3.26,31.49,3.88,36.73a.09.09,0,0,1,0,0,7.25,7.25,0,0,1-1.18,4.49,238.46,238.46,0,0,0-17.72,37.27c-47.11,125.55,7.26,280.18,7.26,280.18l14.11-5.69s30.94-172.08,56.08-248.1c4.27-12.89,8.36-23,12.11-29.08,10.93-17.64,21.08-46.47,30.28-80.76,17.41-64.82,31.42-149.15,40.74-214.24C530.93,795.12,557.52,685,557.52,685Z"/><path class="cls-10" d="M876.83,658.53c-8.72,7.72-31.88-18.79-35.07-22.31a1.76,1.76,0,0,0-.33-.5l7.05-19.63s30.36-1.18,35.39,3.85S886.39,650.31,876.83,658.53Z"/><path class="cls-10" d="M848.48,616.09l-3,20.3s-1.35,0-3.7-.17c-7.38-.5-25.33-1.51-45.63-3.69-30.53-3-66.77-8.39-81.2-17.28-22-13.42-58-54.53-81.53-95.63a26.82,26.82,0,0,1-1.68-3c-12.25-21.81-20.8-43.45-21.47-60.73a86.64,86.64,0,0,1,2.85-27.52,70.11,70.11,0,0,1,12.41-24.82,12.92,12.92,0,0,1,2.35-2.86c8-9.56,15.94-13.59,15.94-13.59,4-1.67,8.39.34,12.92,5.21v.16c3.69,3.86,7.72,9.73,11.57,17.12.17.16.34.33.34.5.84,1.51,1.68,3.19,2.68,5a3.94,3.94,0,0,1,.67,1.18q2.78,5.78,5.54,12.07c20.64,45,42.61,113.08,60.9,133.38,7.89,8.72,44,25.84,72.64,38.59C831.7,609.38,848.48,616.09,848.48,616.09Z"/><path class="cls-11" d="M635,433.4c-12.72,5.9-28.09,9.92-46.68,10.93-69.68,3.82-85.5-57.26-88.38-97.8a58.47,58.47,0,0,1,23.91-3c4.94.28,10.1.78,14.35,1.31,8.53-4.46,23.84-26.08,32.69-62.26l3,1.39,50.27,23.64s-5.33,16.36-9.28,32c-3.08,12.26-5.28,24.09-3.44,27.41,4,1.61,6.34,2.62,6.34,2.62a.18.18,0,0,0,0,.05A345.07,345.07,0,0,1,635,433.4Z"/><path class="cls-12" d="M652.38,479.12c-.53,1.39-1.11,2.75-1.74,4.15-17.64,38-50.32,195.45-50.32,195.45C605,707,387.59,673.16,387,647.39c-7.66-27.33,27.16-71.24,46.8-93.27a62.78,62.78,0,0,0,15.5-34.86c3.85-36.53,2.38-70.77,2.71-91.59h0c3.84-2.84,7.55-5.46,11-8,5.29-3.86,10-7.46,13.4-11.11,3.78-4,6.15-8.06,6.42-12.65a67.42,67.42,0,0,0-.27-10.61c-.16-1.68-.38-3.37-.63-5.05a144.16,144.16,0,0,0-10.1-33.72c18.69-7.56,51.94-3.06,51.94-3.06s0,1.85,0,4.87c-.11,12.15,0,43.33,3.89,49.23,4.87,7.35,93.93,39.55,98.64,29.57,4.63-9.8-8-55.76-8.53-57.5a.18.18,0,0,1,0-.05c29.82,11.71,40.48,21.54,40.48,21.54C640.25,402.81,666.28,442.25,652.38,479.12Z"/><path class="cls-10" d="M624.13,307.59s-5.35,16.34-9.29,32c-29.39-8.2-38.31-39.09-41-55.65Z"/><path class="cls-11" d="M630.32,324.89S560,308.62,570.81,265s9-75.12,54.36-66.57,49.92,27.35,49.85,42.79S648.88,328,630.32,324.89Z"/><path class="cls-8" d="M679,216.43c-7.56-15.81-16.46-15-22-12.16-33-30.57-83.12-15.21-83.12-15.21C561.37,219.19,552,241.12,552,241.12s10.8,11.06,42.11,10.81c9.56-.07,19.17-4.46,27.92-10.51a168.4,168.4,0,0,1-36.66,27.34c39.19-7.5,65.47-52.87,68.16-57.69,3.32,4.91,9.67,15.34,10.21,24.15.72,12-3.4,35.24,3.46,36.12C667.21,271.34,690.31,240.15,679,216.43Z"/><path class="cls-12" d="M658.23,391.15s16.93,29.53,19.46,37.13c0,0-22-.84-30.82,16.05C646.87,444.33,644.75,395.13,658.23,391.15Z"/><path class="cls-13" d="M541.79,625.81c-42.87-.45-79.18-45-101.37-80.56a61.83,61.83,0,0,0,8.91-26c3.85-36.53,2.38-70.77,2.71-91.59h0c3.84-2.84,7.55-5.46,11-8,5.29-3.86,10-7.46,13.4-11.11C511.55,467.93,599.93,626.43,541.79,625.81Z"/><path class="cls-6" d="M458.36,1384.45H346.71s-2.68-17,3.15-29.93c5.59-12.38,14.34-18,12.25-33,7.09,7.3,18.66,15.48,34.8,13.31,2,3.21,12.76,20.37,19.37,25.11C423.58,1365.19,456.12,1363.32,458.36,1384.45Z"/><path class="cls-6" d="M698.1,1384.45H586.45s-4.18-17.81,3.15-29.93c6.49-10.72,4-16.83-.8-25.7a43.41,43.41,0,0,0,18.8,3.55c5.57-.32,11.45-2.85,16.61-5.85,4.8,5.48,25.38,28.8,31.81,33.42C663.32,1365.19,695.85,1363.32,698.1,1384.45Z"/><polygon class="cls-6" points="801.91 564.66 693.27 705.99 694.88 707.96 805.07 566.37 801.91 564.66"/><polygon class="cls-9" points="804.86 566.64 915.11 566.64 799.7 707.96 694.88 707.96 804.86 566.64"/><path class="cls-11" d="M782.18,652.4c-.31-5.63-7.73-5.37-13.36-5.39-9.24,0-23.81-.68-32.25-3.91,0,0,26.93-.39,21.21-8.89-1-1.55-14.43-.38-29.37-.38-6.13,0-21.27,8.4-20.49,8.79-10.83-1.43-20.67-3.53-23.86-4.22h0c-7.38-4-16.27-8.89-25.66-14.26-22.65-12.75-48.66-28.35-66.44-41.27-10.23-7.38-18-13.93-20.63-18.62-4.2-7.22-8.9-18.63-14.1-32.72-2.68-7.38-5.53-15.43-8.39-24-5-14.09-10.06-29.36-15.26-44.62-9.4-27.85-19.46-55.87-29-77.51-6.2-13.59-12.24-24.83-17.95-31.71-4.53-5.54-8.89-8.39-13.08-7.72-.67.17-1.18.34-1.68.5,0,0-24.16,6.72-24.5,55.37a75.42,75.42,0,0,0,.17,8.55c.34,8.56,2,19,4.53,30.37,4,19.13,10.74,41.27,19.13,63.75,2.35,6,4.69,12.25,7.21,18.46,18.12,45,41.44,86.9,61.07,101.16a21.38,21.38,0,0,0,2.35,1.68c8.22,5.2,20.3,10.4,34.22,15.26,19.8,6.72,43.29,12.75,64.26,17.79h.16c12.25,2.68,23.49,5.2,32.89,7,0,0,1.54.39,4.28.93l1.25.25c8.9,2.18,27.18,6.88,44.46,13.59,24.16,9.56,41.93-2.33,50-10.74C778.43,664.61,782.46,657.53,782.18,652.4Z"/><path class="cls-12" d="M504.49,385.48c-32.29-8.91-57.21,16.31-57.21,16.31.41-48.57,24.59-55.22,24.59-55.22C481.59,342.54,502.16,353.41,504.49,385.48Z"/><path class="cls-7" d="M636.48,126.27c-16-3.66-29.54-3.39-41-.58-1.13.28-2.25.58-3.35.91h0c-43.68,13.06-54.67,63.66-54.67,63.66s-1.83,13.27-1.37,19,42.07,20.58,48.38,13.19S603,210.29,603,210.29s42.59,18.13,45.46,19.34c9.64,4.06,40.88,8.35,40.88,8.35C690.33,235.22,717.56,144.83,636.48,126.27Z"/><path class="cls-14" d="M718.14,241.65c-4.32-3.72-12.06-9.35-25.67-16.92,0,0-16.56,3.71-43.46-.73-3.9-19.25-18.07-68.09-53.51-98.31l-.31-.27c-1.4.64-2.07.76-3,1.18h0a9.57,9.57,0,0,0-1,.48c30,22.46,42.38,75.27,46.06,94.55A205.46,205.46,0,0,1,603,210.29s31.71,33.77,112.93,37.41C719.07,247.84,720.55,243.72,718.14,241.65Z"/><polygon class="cls-6" points="801.91 564.66 912.79 564.66 915.11 566.64 804.86 566.64 801.91 564.66"/><path class="cls-9" d="M1637.67,1231H1438a7.51,7.51,0,0,1,0-15h199.66a7.51,7.51,0,0,1,0,15Z"/><path class="cls-9" d="M1639.65,1000H1436a7.5,7.5,0,0,1,0-15h203.62a7.5,7.5,0,0,1,0,15Z"/><path class="cls-12" d="M1765.77,655.88c12.08,2.79,66.66,3.45,105-5.16a117.07,117.07,0,0,0,21.33-6.65c7.22-3.18,12.66-7,15.44-11.66,4.34-7.22,12.26-31.93,21.58-64.33,25.67-89.25,61.79-236.72,61.79-236.72s-72.53,14.8-87.88,27.44-28.9,213.1-43.34,218.52c-2.13.8-5.8,2.48-10.5,4.8l-.69.33c-2.81,1.38-6,3-9.37,4.74-30,15.39-79.51,43.12-84.65,49.28C1747.71,644.6,1748.16,651.82,1765.77,655.88Z"/><path class="cls-12" d="M1904.94,445.49a57.54,57.54,0,0,1,1-10.26c9.33-51.32,83.55-103.87,85-103.87v1.07c0,7.84,12.37,22.32,31.41,23.57,22.6,1.47,50.48-11.42,50.48-24.43.14,0,12.7,1.7,17,2.17,18.11,2.06,54.25,11.84,69.73,23.54,14.72,11.12-6.08,81.25-19,130.9-5.46,21-9.48,38.35-8.82,46,.33,3.75,3.7,54.72,6.7,100.82,2.5,38,4.74,72.75,4.81,74.94.16,4.32-21.32,19.45-57.39,30.88a281,281,0,0,1-28.61,7.42,303.82,303.82,0,0,1-62.23,6.18c-7.45,0-14.51-.41-21.17-1.07C1922.29,748.32,1904.64,689.61,1904.94,445.49Z"/><path class="cls-15" d="M2072.79,331c.44-19.93.11-43.73-2.58-63.84l-79.56,13s-.09,24.29.26,51.23c-.05,0-2.16,25,28.62,28.64S2073.62,350.25,2072.79,331Z"/><path class="cls-6" d="M2006.23,1384.45c10-6.15,4.13-51.78,4.13-51.78s-46.86-37.2-53.17-8.56-44.23,41.62-65.82,45.21c-14.91,2.48-20.41,10.18-21.82,15.08Z"/><path class="cls-13" d="M2079.12,599.9c0,76.3,37,55.74,59.29,35.13-3-46.1-5.12-209.41-5.12-209.41S2079.12,490.63,2079.12,599.9Z"/><path class="cls-13" d="M1839.13,587.19c1.47,10.7,18.38,41.86,31.64,63.53a117.07,117.07,0,0,0,21.33-6.65c7.22-3.18,12.66-7,15.44-11.66,4.34-7.22,12.26-31.93,21.58-64.33-6.9-39.87-13.45-79.25-13.45-79.25l-2-26.41c0,2-30.93,118.07-44.93,120.78-8.44,1.64-14.43-.35-19.52-1.08l-.69.33C1845.69,583.83,1842.54,585.43,1839.13,587.19Z"/><path class="cls-6" d="M2149.81,1384.45c10-6.15,4.13-51.78,4.13-51.78s-46.86-37.2-53.18-8.56-44.22,41.62-65.81,45.21c-14.91,2.48-20.33,10.18-21.74,15.08Z"/><path class="cls-6" d="M2080.37,244.18s53.11-83.74-48.87-89.28c0,0-38.25,4.5-46.91-4.16,0,0-29.67,45.09-2,93.44S2080.37,244.18,2080.37,244.18Z"/><path class="cls-15" d="M1993,287.88c7.73,6.08,30.4,12.12,37,12.83,0,0,33.61-7.5,39.72-11.18,9.46-5.74,8.86-17.35,9.34-33.49.58-19.11,2.51-34.11.37-45.13-2.53-13.17-10.89-20.67-34.27-22.71-42.94-3.72-60.83,7-61.58,21.42-.19,3.87-.37,7.55-.5,11C1981.33,265.56,1984.87,281.48,1993,287.88Z"/><path class="cls-6" d="M1982.66,235.38c.41,26,7.43,41.4,12.51,43.35a107.42,107.42,0,0,0,19.91,5.32c2.42.28,4.74.2,4.71-1.17-.08-4.1-5.56-9.16-1.48-12.79,4.27-3.81,27.2-5.09,29,3.22.9,4.05-6.5,11.21-1.43,11.37,1.54-.26,3-.55,4.49-.93a67.13,67.13,0,0,0,17.66-7.79c9.46-5.74,8.84-14.54,10.94-30.55,1.36-10.36,1.36-4.74,0,10.63-1.42,16.09,1.36,26.41-9.34,33.49-5.95,3.93-40.22,19.33-40.22,19.33.5-8.15-28.72-14.9-36.45-21C1985.83,282.24,1982.23,269.19,1982.66,235.38Z"/><path class="cls-9" d="M2143.22,710c.16,4.32-21.32,19.45-57.39,30.89-2.91.92-5.92,1.81-9,2.67a.1.1,0,0,0-.07.09c-3.37,39.48-12.48,95.25-20.69,149.07v0c-2.13,13.95-4.19,27.77-6.09,41.13-5,35.38-8.76,67.62-9.17,90.82v.25c-.17,10.64,8.81,37.2,9.49,43.34.41,3.75.75,7.72,1,11.88,1,16.62.58,36.26-.76,57.23-5.89,91.5-30.07,208.59-38.7,213.57-17.15,9.92-48.35,0-64.21-2.33-6.57-1-11.83-6.57-11.49-13.19C1943.88,1183.53,1921.62,972,1905,842q-.66-5.07-1.29-10c-2-15.33-3.3-29.65-4.13-42.56-.76-11.32-1.12-21.6-1.29-30.51,0-2.78-.06-5.43-.08-7.94,0-8.14,6.44-61.42,6.73-305.54h0a10.31,10.31,0,0,1,10.27-10.26h149.29a25.88,25.88,0,0,1,25.85,26.23c-.23,18.62.44,44.63,4.48,69.44,5.51,33.9,17.31,65.56,41.66,73.18a.1.1,0,0,1,.06,0c.11.25.78,1.73,1.85,4.2v0q.34,9.2.77,18.73c0,1.27.11,2.56.17,3.84,0,.76.07,1.51.11,2.26.06,1.29.12,2.59.19,3.89.1,2.14.2,4.3.33,6.48.09,1.7.19,3.41.28,5.13q.27,5,.6,10c.05,1.09.12,2.16.2,3.25q.42,6.56.92,13.25c.1,1.37.2,2.74.31,4.12,0,.66.1,1.32.15,2,.14,1.75.27,3.49.42,5.25s.31,3.73.48,5.61C2143.92,699.05,2143,705.15,2143.22,710Z"/><path class="cls-6" d="M2050.53,1137.35c-5.89,91.5-30.07,208.59-38.7,213.57-17.15,9.92-48.35,0-64.21-2.33-6.57-1-11.83-6.57-11.49-13.19C1943.88,1183.53,1921.62,972,1905,842q-.66-5.07-1.29-10c-2-15.33-3.3-29.65-4.13-42.56,7.91-51.55,52.56-54.31,93,52.33C1987.6,877.19,2051.87,1116.38,2050.53,1137.35Z"/><path class="cls-9" d="M2144.89,1020.35c1.23,10.58,13.61,35.73,15.09,41.72,20.47,82.31,9.17,277.49-1,285.29-15.7,12.08-47.95,6.34-64,6.12-6.64-.09-12.58-5-13.12-11.56-12.58-155.51-64.73-369.09-98.27-494.74-16.88-63.28-19.28-109.82-19.28-109.82s156.74-96,173.69-43.57C2153.06,740.21,2135.44,939.12,2144.89,1020.35Z"/><path class="cls-7" d="M1985.25,131.48q1.62-1.83,3.44-3.54a61,61,0,0,1,18.67-12.14c27.33-11.4,50-.88,64.16,9.9,1.4,1,2.71,2.12,3.93,3.17a82.28,82.28,0,0,1,12,12.38s13.27,18.11,12.83,56.28L1963.56,199S1961.56,157.77,1985.25,131.48Z"/><path class="cls-14" d="M2061.92,197.92l-7.52.09c-.15-2.18.22-51.8,18.72-71.06a26.53,26.53,0,0,1,2.33,1.92C2057.88,145.83,2061.88,197.41,2061.92,197.92Z"/><path class="cls-14" d="M2002.5,198.57c-1.56-30.37-13.19-62.3-16.33-68a31.43,31.43,0,0,1,2.52-2.66c2.18,3.75,20,36.81,21.89,70.55l89.7-1s-45.45,10.19-72.88,10.53-63.84-9.07-63.84-9.07Z"/><path class="cls-9" d="M2095.13,334.47s-46.2,53.81-48.9,100.77l23.53,1.24s5.93-52.29,40.69-98.8c0,0-5.44-1.31-7.24-1.67C2100.78,335.53,2095.13,334.47,2095.13,334.47Z"/><path class="cls-9" d="M1980,333.73c-33.09,50.07-36.64,102.52-36.64,102.52l-23.75-.41c2-36.91,25.14-77.51,37.94-96.74C1957.51,339.1,1973.94,335,1980,333.73Z"/><path class="cls-12" d="M2132.1,623.35c-1.16,55.1,5.7,164.82,5.7,164.82h32.51c15.35-77.2,20.77-126.87,20.77-154q0-8-.07-14.9c-.2-23.14-.83-36.57-.83-36.57,6.1-140.18-21.9-215.14-30.69-225.46s-49-19.6-49-19.6-13.29,38.73-18.71,69.88,42.61,162.05,40.64,206.79C2132.26,617.14,2132.17,620.15,2132.1,623.35Z"/><path class="cls-15" d="M2137.8,788.17s-6.86-109.72-5.7-164.82c26-8.39,47-6.55,58.91-4q.06,6.88.07,14.9c0,27.09-5.42,76.76-20.77,154,6.77,28.45,6.32,59.15-5.42,64.57s-50.56-14.9-50.11-23.93S2137.8,788.17,2137.8,788.17Z"/><path class="cls-15" d="M1693,661.3c3.17-11.62,5.52-18.06,13.52-23.7,11.63-8.2,25.43-6,35.71-4.18,7.86,1.38,16.1-1.25,19.55-2.58,18.21-12.14,63.93-37.17,86.7-48.39,15.53,9,34.62,26.84,43.6,61.62-35,15.45-111.73,15.18-126.33,11.81,0,0-13.52,9.83-23.81,10.73-3.89.34-8.8-.79-13.39-2.33-7.23-2.42-15,0-20.18,6.41-5,6.18-10.35,6.17-13.05,6.17C1691.15,676.86,1691,668.62,1693,661.3Z"/><path class="cls-9" d="M1650.34,1356.36H1408.17c-4.14,0-13.42-3.35-13.42-7.5s31.15-7.5,35.29-7.5h205.3v-635a47.07,47.07,0,0,1,47-47h52.49a7.5,7.5,0,0,1,0,15h-52.49a32,32,0,0,0-32,32Z"/><path class="cls-9" d="M1440.34,1356.36H1264.67a7.5,7.5,0,0,1,0-15h160.67v-635a47.07,47.07,0,0,1,47-47h52.49a7.5,7.5,0,0,1,0,15h-52.49a32,32,0,0,0-32,32Z"/><path class="cls-9" d="M1638,770H1437.66a7.51,7.51,0,0,1,0-15H1638a7.51,7.51,0,0,1,0,15Z"/><path class="cls-16" d="M1747.17,679.36h-64.82a12.5,12.5,0,0,1,0-25h64.82a12.5,12.5,0,0,1,0,25Z"/><path class="cls-9" d="M1682.35,659.36a47.09,47.09,0,0,0-46.51,40.17h15.24a32.08,32.08,0,0,1,31.27-25.17,7.5,7.5,0,0,0,0-15Z"/><path class="cls-16" d="M1537.17,679.36h-64.82a12.5,12.5,0,0,1,0-25h64.82a12.5,12.5,0,0,1,0,25Z"/><path class="cls-9" d="M1472.35,659.36a47.09,47.09,0,0,0-46.51,40.17h15.24a32.08,32.08,0,0,1,31.27-25.17,7.5,7.5,0,0,0,0-15Z"/><polygon class="cls-3" points="1392.92 1119.59 1642.53 1115.19 1643.22 1341.36 1393.6 1341.36 1392.92 1119.59"/><polygon class="cls-4" points="1318.03 1119.97 1517.86 1119.2 1518.41 1341.49 1318.57 1341.36 1318.03 1119.97"/><polygon class="cls-5" points="1517.86 1119.2 1318.03 1119.97 1318.2 1190.03 1518.41 1341.49 1517.86 1119.2"/><path class="cls-6" d="M1667.17,1224h-30c-35.62,0-64.5,35.37-64.5,79s28.88,79,64.5,79h30c35.62,0,64.5-35.37,64.5-79S1702.79,1224,1667.17,1224Z"/><ellipse class="cls-9" cx="1667.17" cy="1303.03" rx="64.5" ry="79"/><path class="cls-13" d="M1708,1303c0,27.61-18.27,50-40.82,50s-40.82-22.39-40.82-50,18.28-50,40.82-50S1708,1275.41,1708,1303Z"/><polygon class="cls-3" points="1437.76 866.07 1725.01 865.19 1724.21 1118.55 1438.54 1119.43 1437.76 866.07"/><polygon class="cls-4" points="1352.05 866.51 1580.75 865.63 1581.38 1118.99 1352.68 1119.87 1352.05 866.51"/><polygon class="cls-5" points="1580.75 865.63 1352.05 866.51 1352.25 947.51 1581.38 1118.99 1580.75 865.63"/><path class="cls-15" d="M1765.77,655.88s-24.33,16.56-30.77,12.48,4.5-13.33-5.83-16.66S1765.77,655.88,1765.77,655.88Z"/><rect class="cls-17" y="1380.96" width="2629.8" height="6.98" rx="2.98"/></g></g></svg>